<svg xmlns="http://www.w3.org/2000/svg" xmlns:xlink="http://www.w3.org/1999/xlink" width="1170" height="772" viewBox="0 0 1170 772">
  <defs>
    <clipPath id="clip-Web_1920_1">
      <rect width="1170" height="772"/>
    </clipPath>
  </defs>
  <g id="Web_1920_1" data-name="Web 1920 – 1" clip-path="url(#clip-Web_1920_1)">
    <g id="Rectangle_13" data-name="Rectangle 13" transform="translate(620 163)" fill="none" stroke="#9e9e9e" stroke-width="1">
      <rect width="455" height="527" stroke="none"/>
      <rect x="0.5" y="0.5" width="454" height="526" fill="none"/>
    </g>
    <g id="Rectangle_1" data-name="Rectangle 1" transform="translate(79 163)" fill="none" stroke="#9e9e9e" stroke-width="1">
      <rect width="455" height="527" stroke="none"/>
      <rect x="0.5" y="0.5" width="454" height="526" fill="none"/>
    </g>
    <g id="Rectangle_3" data-name="Rectangle 3" transform="translate(111 238)" fill="none" stroke="#9e9e9e" stroke-width="1">
      <rect width="386" height="422" stroke="none"/>
      <rect x="0.5" y="0.5" width="385" height="421" fill="none"/>
    </g>
    <g id="Rectangle_12" data-name="Rectangle 12" transform="translate(317 475)" fill="none" stroke="#9e9e9e" stroke-width="1">
      <rect width="162" height="65" stroke="none"/>
      <rect x="0.5" y="0.5" width="161" height="64" fill="none"/>
    </g>
    <text id="Node.js_Stack_Example_-_Deployed" data-name="Node.js Stack Example    -    Deployed" transform="translate(425 84)" fill="#9e9e9e" font-size="20" font-family="Lexend-Regular, Lexend"><tspan x="0" y="0" xml:space="preserve">Node.js Stack Example    -    Deployed</tspan></text>
    <text id="Your_Computer" data-name="Your Computer" transform="translate(94 197)" fill="#9e9e9e" font-size="20" font-family="Lexend-Regular, Lexend"><tspan x="0" y="0">Your Computer</tspan></text>
    <text id="Remote_Server" data-name="Remote Server" transform="translate(645 196)" fill="#9e9e9e" font-size="20" font-family="Lexend-Regular, Lexend"><tspan x="0" y="0">Remote Server</tspan></text>
    <text id="Web_Browser_Firefox_" data-name="Web Browser (Firefox)" transform="translate(125 272)" fill="#9e9e9e" font-size="20" font-family="Lexend-Regular, Lexend"><tspan x="0" y="0">Web Browser (Firefox)</tspan></text>
    <g id="Rectangle_4" data-name="Rectangle 4" transform="translate(136 313)" fill="none" stroke="#9e9e9e" stroke-width="1">
      <rect width="165" height="310" stroke="none"/>
      <rect x="0.5" y="0.5" width="164" height="309" fill="none"/>
    </g>
    <g id="Rectangle_8" data-name="Rectangle 8" transform="translate(316 313)" fill="none" stroke="#9e9e9e" stroke-width="1">
      <rect width="162" height="65" stroke="none"/>
      <rect x="0.5" y="0.5" width="161" height="64" fill="none"/>
    </g>
    <text id="HTML" transform="translate(370 353)" fill="#9e9e9e" font-size="20" font-family="Lexend-Regular, Lexend"><tspan x="0" y="0">HTML</tspan></text>
    <g id="Rectangle_10" data-name="Rectangle 10" transform="translate(317 394)" fill="none" stroke="#9e9e9e" stroke-width="1">
      <rect width="162" height="65" stroke="none"/>
      <rect x="0.5" y="0.5" width="161" height="64" fill="none"/>
    </g>
    <text id="CSS_Bootstrap_" data-name="CSS
(Bootstrap)" transform="translate(397 420)" fill="#9e9e9e" font-size="20" font-family="Lexend-Regular, Lexend"><tspan x="-18.95" y="0">CSS</tspan><tspan x="-54.18" y="25">(Bootstrap)</tspan></text>
    <text id="JavaScript_jQuery_" data-name="JavaScript
(jQuery)" transform="translate(392 503)" fill="#9e9e9e" font-size="20" font-family="Lexend-Regular, Lexend"><tspan x="-50.78" y="0">JavaScript</tspan><tspan x="-38.45" y="25">(jQuery)</tspan></text>
    <g id="Rectangle_11" data-name="Rectangle 11" transform="translate(316 558)" fill="none" stroke="#9e9e9e" stroke-width="1">
      <rect width="162" height="65" stroke="none"/>
      <rect x="0.5" y="0.5" width="161" height="64" fill="none"/>
    </g>
    <text id="Assets_Images_Fonts_" data-name="Assets
(Images, Fonts)" transform="translate(398 582)" fill="#9e9e9e" font-size="20" font-family="Lexend-Regular, Lexend"><tspan x="-30.66" y="0">Assets</tspan><tspan x="-75.34" y="25">(Images, Fonts)</tspan></text>
    <g id="Rectangle_14" data-name="Rectangle 14" transform="translate(642 238)" fill="none" stroke="#9e9e9e" stroke-width="1">
      <rect width="411" height="189" stroke="none"/>
      <rect x="0.5" y="0.5" width="410" height="188" fill="none"/>
    </g>
    <g id="Rectangle_21" data-name="Rectangle 21" transform="translate(144 352)" fill="none" stroke="#9e9e9e" stroke-width="1">
      <rect width="149" height="263" stroke="none"/>
      <rect x="0.5" y="0.5" width="148" height="262" fill="none"/>
    </g>
    <text id="Node.js" transform="translate(700 271)" fill="#9e9e9e" font-size="20" font-family="Lexend-Regular, Lexend"><tspan x="-35.23" y="0">Node.js</tspan></text>
    <text id="Modern_Web_App_" data-name="Modern
Web App!" transform="translate(219 463)" fill="#9e9e9e" font-size="20" font-family="Lexend-Regular, Lexend"><tspan x="-36.01" y="0">Modern</tspan><tspan x="-45.54" y="25">Web App!</tspan></text>
    <g id="Rectangle_15" data-name="Rectangle 15" transform="translate(642 471)" fill="none" stroke="#9e9e9e" stroke-width="1">
      <rect width="411" height="189" stroke="none"/>
      <rect x="0.5" y="0.5" width="410" height="188" fill="none"/>
    </g>
    <text id="MongoDB" transform="translate(712 508)" fill="#9e9e9e" font-size="20" font-family="Lexend-Regular, Lexend"><tspan x="-46.94" y="0">MongoDB</tspan></text>
    <g id="Rectangle_16" data-name="Rectangle 16" transform="translate(665 533)" fill="none" stroke="#9e9e9e" stroke-width="1">
      <rect width="114" height="108" stroke="none"/>
      <rect x="0.5" y="0.5" width="113" height="107" fill="none"/>
    </g>
    <g id="Rectangle_22" data-name="Rectangle 22" transform="translate(665 292)" fill="none" stroke="#9e9e9e" stroke-width="1">
      <rect width="178" height="108" stroke="none"/>
      <rect x="0.5" y="0.5" width="177" height="107" fill="none"/>
    </g>
    <g id="Rectangle_23" data-name="Rectangle 23" transform="translate(859 292)" fill="none" stroke="#9e9e9e" stroke-width="1">
      <rect width="178" height="108" stroke="none"/>
      <rect x="0.5" y="0.5" width="177" height="107" fill="none"/>
    </g>
    <g id="Rectangle_17" data-name="Rectangle 17" transform="translate(794 533)" fill="none" stroke="#9e9e9e" stroke-width="1">
      <rect width="114" height="108" stroke="none"/>
      <rect x="0.5" y="0.5" width="113" height="107" fill="none"/>
    </g>
    <g id="Rectangle_18" data-name="Rectangle 18" transform="translate(923 533)" fill="none" stroke="#9e9e9e" stroke-width="1">
      <rect width="114" height="108" stroke="none"/>
      <rect x="0.5" y="0.5" width="113" height="107" fill="none"/>
    </g>
    <text id="mongoose" transform="translate(722 595)" fill="#9e9e9e" font-size="20" font-family="Lexend-Regular, Lexend"><tspan x="-49.81" y="0">mongoose</tspan></text>
    <text id="Express.js" transform="translate(754 354)" fill="#9e9e9e" font-size="20" font-family="Lexend-Regular, Lexend"><tspan x="-45.78" y="0">Express.js</tspan></text>
    <text id="EJS" transform="translate(948 354)" fill="#9e9e9e" font-size="20" font-family="Lexend-Regular, Lexend"><tspan x="-18.32" y="0">EJS</tspan></text>
    <text id="passport" transform="translate(851 595)" fill="#9e9e9e" font-size="20" font-family="Lexend-Regular, Lexend"><tspan x="-41.95" y="0">passport</tspan></text>
    <text id="passport_local_mongoose" data-name="passport
local
mongoose" transform="translate(980 573)" fill="#9e9e9e" font-size="20" font-family="Lexend-Regular, Lexend"><tspan x="-41.95" y="0">passport</tspan><tspan x="-21.96" y="25">local</tspan><tspan x="-49.81" y="50">mongoose</tspan></text>
    <g id="Rectangle_19" data-name="Rectangle 19" transform="translate(144 320)" fill="none" stroke="#9e9e9e" stroke-width="1">
      <rect width="152" height="21" stroke="none"/>
      <rect x="0.5" y="0.5" width="151" height="20" fill="none"/>
    </g>
    <g id="Rectangle_20" data-name="Rectangle 20" transform="translate(276 320)" fill="none" stroke="#9e9e9e" stroke-width="1">
      <rect width="20" height="21" stroke="none"/>
      <rect x="0.5" y="0.5" width="19" height="20" fill="none"/>
    </g>
    <line id="Line_1" data-name="Line 1" x2="13" y2="13" transform="translate(279.5 323.5)" fill="none" stroke="#707070" stroke-width="1"/>
    <line id="Line_2" data-name="Line 2" y1="13" x2="13" transform="translate(279.5 324.5)" fill="none" stroke="#707070" stroke-width="1"/>
    <text id="_" data-name="+" transform="translate(392 392)" fill="#9e9e9e" font-size="20" font-family="Lexend-Regular, Lexend"><tspan x="-5.91" y="0">+</tspan></text>
    <text id="_2" data-name="+" transform="translate(392 473)" fill="#9e9e9e" font-size="20" font-family="Lexend-Regular, Lexend"><tspan x="-5.91" y="0">+</tspan></text>
    <text id="_3" data-name="+" transform="translate(392 556)" fill="#9e9e9e" font-size="20" font-family="Lexend-Regular, Lexend"><tspan x="-5.91" y="0">+</tspan></text>
    <text id="VIEW" transform="translate(446 272)" fill="#9e9e9e" font-size="20" font-family="Lexend-Regular, Lexend"><tspan x="-26.83" y="0">VIEW</tspan></text>
    <text id="CONTROLLER" transform="translate(971 271)" fill="#9e9e9e" font-size="20" font-family="Lexend-Regular, Lexend"><tspan x="-66.29" y="0">CONTROLLER</tspan></text>
    <text id="MODEL" transform="translate(1001 508)" fill="#9e9e9e" font-size="20" font-family="Lexend-Regular, Lexend"><tspan x="-35.55" y="0">MODEL</tspan></text>
  </g>
</svg>
