<svg xmlns="http://www.w3.org/2000/svg" xmlns:xlink="http://www.w3.org/1999/xlink" width="1417" height="642" viewBox="0 0 1417 642">
  <defs>
    <clipPath id="clip-Web_1920_1">
      <rect width="1417" height="642"/>
    </clipPath>
  </defs>
  <g id="Web_1920_1" data-name="Web 1920 – 1" clip-path="url(#clip-Web_1920_1)">
    <rect width="1417" height="642" fill="#fff"/>
    <g id="Rectangle_1" data-name="Rectangle 1" transform="translate(67 103)" fill="#fff" stroke="#707070" stroke-width="2">
      <rect width="882" height="484" stroke="none"/>
      <rect x="1" y="1" width="880" height="482" fill="none"/>
    </g>
    <g id="Rectangle_2" data-name="Rectangle 2" transform="translate(1056 103)" fill="#fff" stroke="#707070" stroke-width="2">
      <rect width="285" height="484" stroke="none"/>
      <rect x="1" y="1" width="283" height="482" fill="none"/>
    </g>
    <text id="Your_Computer" data-name="Your Computer" transform="translate(508 70)" fill="#707070" font-size="26" font-family="Lexend-Regular, Lexend"><tspan x="-92.482" y="0">Your Computer</tspan></text>
    <text id="Remote_Repo" data-name="Remote Repo" transform="translate(1105 176)" fill="#707070" font-size="26" font-family="Lexend-Regular, Lexend"><tspan x="0" y="0">Remote Repo</tspan></text>
    <text id="GitHub" transform="translate(1201 72)" fill="#707070" font-size="26" font-family="Lexend-Regular, Lexend"><tspan x="-43.29" y="0">GitHub</tspan></text>
    <g id="Rectangle_3" data-name="Rectangle 3" transform="translate(114 207)" fill="#fff" stroke="#707070" stroke-width="2">
      <rect width="165" height="301" stroke="none"/>
      <rect x="1" y="1" width="163" height="299" fill="none"/>
    </g>
    <g id="Rectangle_19" data-name="Rectangle 19" transform="translate(381 207)" fill="#fff" stroke="#707070" stroke-width="2">
      <rect width="165" height="301" stroke="none"/>
      <rect x="1" y="1" width="163" height="299" fill="none"/>
    </g>
    <g id="Rectangle_32" data-name="Rectangle 32" transform="translate(710 207)" fill="#fff" stroke="#707070" stroke-width="2">
      <rect width="165" height="301" stroke="none"/>
      <rect x="1" y="1" width="163" height="299" fill="none"/>
    </g>
    <g id="Rectangle_45" data-name="Rectangle 45" transform="translate(1105 207)" fill="#fff" stroke="#707070" stroke-width="2">
      <rect width="165" height="301" stroke="none"/>
      <rect x="1" y="1" width="163" height="299" fill="none"/>
    </g>
    <text id="Working" transform="translate(145 190)" fill="#707070" font-size="26" font-family="Lexend-Regular, Lexend"><tspan x="0" y="0">Working</tspan></text>
    <text id="Staged" transform="translate(422 190)" fill="#707070" font-size="26" font-family="Lexend-Regular, Lexend"><tspan x="0" y="0">Staged</tspan></text>
    <text id="Local_Repo" data-name="Local Repo" transform="translate(725 190)" fill="#707070" font-size="26" font-family="Lexend-Regular, Lexend"><tspan x="0" y="0">Local Repo</tspan></text>
    <g id="Rectangle_6" data-name="Rectangle 6" transform="translate(131 229)" fill="#fff" stroke="#707070" stroke-width="2">
      <rect width="48" height="71" stroke="none"/>
      <rect x="1" y="1" width="46" height="69" fill="none"/>
    </g>
    <g id="Rectangle_20" data-name="Rectangle 20" transform="translate(398 229)" fill="#fff" stroke="#707070" stroke-width="2">
      <rect width="48" height="71" stroke="none"/>
      <rect x="1" y="1" width="46" height="69" fill="none"/>
    </g>
    <g id="Rectangle_33" data-name="Rectangle 33" transform="translate(727 229)" fill="#fff" stroke="#707070" stroke-width="2">
      <rect width="48" height="71" stroke="none"/>
      <rect x="1" y="1" width="46" height="69" fill="none"/>
    </g>
    <g id="Rectangle_46" data-name="Rectangle 46" transform="translate(1122 229)" fill="#fff" stroke="#707070" stroke-width="2">
      <rect width="48" height="71" stroke="none"/>
      <rect x="1" y="1" width="46" height="69" fill="none"/>
    </g>
    <g id="Rectangle_13" data-name="Rectangle 13" transform="translate(131 229)" fill="#fff" stroke="#707070" stroke-width="2">
      <rect width="48" height="71" stroke="none"/>
      <rect x="1" y="1" width="46" height="69" fill="none"/>
    </g>
    <g id="Rectangle_21" data-name="Rectangle 21" transform="translate(398 229)" fill="#fff" stroke="#707070" stroke-width="2">
      <rect width="48" height="71" stroke="none"/>
      <rect x="1" y="1" width="46" height="69" fill="none"/>
    </g>
    <g id="Rectangle_34" data-name="Rectangle 34" transform="translate(727 229)" fill="#fff" stroke="#707070" stroke-width="2">
      <rect width="48" height="71" stroke="none"/>
      <rect x="1" y="1" width="46" height="69" fill="none"/>
    </g>
    <g id="Rectangle_47" data-name="Rectangle 47" transform="translate(1122 229)" fill="#fff" stroke="#707070" stroke-width="2">
      <rect width="48" height="71" stroke="none"/>
      <rect x="1" y="1" width="46" height="69" fill="none"/>
    </g>
    <g id="Rectangle_10" data-name="Rectangle 10" transform="translate(131 229)" fill="#fff" stroke="#707070" stroke-width="2">
      <rect width="48" height="71" stroke="none"/>
      <rect x="1" y="1" width="46" height="69" fill="none"/>
    </g>
    <g id="Rectangle_22" data-name="Rectangle 22" transform="translate(398 229)" fill="#fff" stroke="#707070" stroke-width="2">
      <rect width="48" height="71" stroke="none"/>
      <rect x="1" y="1" width="46" height="69" fill="none"/>
    </g>
    <g id="Rectangle_35" data-name="Rectangle 35" transform="translate(727 229)" fill="#fff" stroke="#707070" stroke-width="2">
      <rect width="48" height="71" stroke="none"/>
      <rect x="1" y="1" width="46" height="69" fill="none"/>
    </g>
    <g id="Rectangle_48" data-name="Rectangle 48" transform="translate(1122 229)" fill="#fff" stroke="#707070" stroke-width="2">
      <rect width="48" height="71" stroke="none"/>
      <rect x="1" y="1" width="46" height="69" fill="none"/>
    </g>
    <g id="Rectangle_14" data-name="Rectangle 14" transform="translate(131 229)" fill="#fff" stroke="#707070" stroke-width="2">
      <rect width="48" height="71" stroke="none"/>
      <rect x="1" y="1" width="46" height="69" fill="none"/>
    </g>
    <g id="Rectangle_23" data-name="Rectangle 23" transform="translate(398 229)" fill="#fff" stroke="#707070" stroke-width="2">
      <rect width="48" height="71" stroke="none"/>
      <rect x="1" y="1" width="46" height="69" fill="none"/>
    </g>
    <g id="Rectangle_36" data-name="Rectangle 36" transform="translate(727 229)" fill="#fff" stroke="#707070" stroke-width="2">
      <rect width="48" height="71" stroke="none"/>
      <rect x="1" y="1" width="46" height="69" fill="none"/>
    </g>
    <g id="Rectangle_49" data-name="Rectangle 49" transform="translate(1122 229)" fill="#fff" stroke="#707070" stroke-width="2">
      <rect width="48" height="71" stroke="none"/>
      <rect x="1" y="1" width="46" height="69" fill="none"/>
    </g>
    <line id="Line_1" data-name="Line 1" y1="12" x2="12" transform="translate(131.5 229.5)" fill="none" stroke="#707070" stroke-width="2"/>
    <line id="Line_13" data-name="Line 13" y1="12" x2="12" transform="translate(398.5 229.5)" fill="none" stroke="#707070" stroke-width="2"/>
    <line id="Line_25" data-name="Line 25" y1="12" x2="12" transform="translate(727.5 229.5)" fill="none" stroke="#707070" stroke-width="2"/>
    <line id="Line_37" data-name="Line 37" y1="12" x2="12" transform="translate(1122.5 229.5)" fill="none" stroke="#707070" stroke-width="2"/>
    <line id="Line_7" data-name="Line 7" y1="12" x2="12" transform="translate(131.5 229.5)" fill="none" stroke="#707070" stroke-width="2"/>
    <line id="Line_14" data-name="Line 14" y1="12" x2="12" transform="translate(398.5 229.5)" fill="none" stroke="#707070" stroke-width="2"/>
    <line id="Line_26" data-name="Line 26" y1="12" x2="12" transform="translate(727.5 229.5)" fill="none" stroke="#707070" stroke-width="2"/>
    <line id="Line_38" data-name="Line 38" y1="12" x2="12" transform="translate(1122.5 229.5)" fill="none" stroke="#707070" stroke-width="2"/>
    <line id="Line_4" data-name="Line 4" y1="12" x2="12" transform="translate(131.5 229.5)" fill="none" stroke="#707070" stroke-width="2"/>
    <line id="Line_15" data-name="Line 15" y1="12" x2="12" transform="translate(398.5 229.5)" fill="none" stroke="#707070" stroke-width="2"/>
    <line id="Line_27" data-name="Line 27" y1="12" x2="12" transform="translate(727.5 229.5)" fill="none" stroke="#707070" stroke-width="2"/>
    <line id="Line_39" data-name="Line 39" y1="12" x2="12" transform="translate(1122.5 229.5)" fill="none" stroke="#707070" stroke-width="2"/>
    <line id="Line_8" data-name="Line 8" y1="12" x2="12" transform="translate(131.5 229.5)" fill="none" stroke="#707070" stroke-width="2"/>
    <line id="Line_16" data-name="Line 16" y1="12" x2="12" transform="translate(398.5 229.5)" fill="none" stroke="#707070" stroke-width="2"/>
    <line id="Line_28" data-name="Line 28" y1="12" x2="12" transform="translate(727.5 229.5)" fill="none" stroke="#707070" stroke-width="2"/>
    <line id="Line_40" data-name="Line 40" y1="12" x2="12" transform="translate(1122.5 229.5)" fill="none" stroke="#707070" stroke-width="2"/>
    <path id="Path_1" data-name="Path 1" d="M152.628,306.717s7.3-9.25,7.546-3.895,5.112,1.461,5.112,1.461,9.25-6.086,7.059-1.461,7.79,1.461,7.79,1.461" transform="translate(-11 -63)" fill="none" stroke="#707070" stroke-width="2"/>
    <path id="Path_61" data-name="Path 61" d="M152.628,306.717s7.3-9.25,7.546-3.895,5.112,1.461,5.112,1.461,9.25-6.086,7.059-1.461,7.79,1.461,7.79,1.461" transform="translate(256 -63)" fill="none" stroke="#707070" stroke-width="2"/>
    <path id="Path_121" data-name="Path 121" d="M152.628,306.717s7.3-9.25,7.546-3.895,5.112,1.461,5.112,1.461,9.25-6.086,7.059-1.461,7.79,1.461,7.79,1.461" transform="translate(585 -63)" fill="none" stroke="#707070" stroke-width="2"/>
    <path id="Path_181" data-name="Path 181" d="M152.628,306.717s7.3-9.25,7.546-3.895,5.112,1.461,5.112,1.461,9.25-6.086,7.059-1.461,7.79,1.461,7.79,1.461" transform="translate(980 -63)" fill="none" stroke="#707070" stroke-width="2"/>
    <path id="Path_31" data-name="Path 31" d="M152.628,306.717s7.3-9.25,7.546-3.895,5.112,1.461,5.112,1.461,9.25-6.086,7.059-1.461,7.79,1.461,7.79,1.461" transform="translate(-11 -63)" fill="none" stroke="#707070" stroke-width="2"/>
    <path id="Path_62" data-name="Path 62" d="M152.628,306.717s7.3-9.25,7.546-3.895,5.112,1.461,5.112,1.461,9.25-6.086,7.059-1.461,7.79,1.461,7.79,1.461" transform="translate(256 -63)" fill="none" stroke="#707070" stroke-width="2"/>
    <path id="Path_122" data-name="Path 122" d="M152.628,306.717s7.3-9.25,7.546-3.895,5.112,1.461,5.112,1.461,9.25-6.086,7.059-1.461,7.79,1.461,7.79,1.461" transform="translate(585 -63)" fill="none" stroke="#707070" stroke-width="2"/>
    <path id="Path_182" data-name="Path 182" d="M152.628,306.717s7.3-9.25,7.546-3.895,5.112,1.461,5.112,1.461,9.25-6.086,7.059-1.461,7.79,1.461,7.79,1.461" transform="translate(980 -63)" fill="none" stroke="#707070" stroke-width="2"/>
    <path id="Path_16" data-name="Path 16" d="M152.628,306.717s7.3-9.25,7.546-3.895,5.112,1.461,5.112,1.461,9.25-6.086,7.059-1.461,7.79,1.461,7.79,1.461" transform="translate(-11 -63)" fill="none" stroke="#707070" stroke-width="2"/>
    <path id="Path_63" data-name="Path 63" d="M152.628,306.717s7.3-9.25,7.546-3.895,5.112,1.461,5.112,1.461,9.25-6.086,7.059-1.461,7.79,1.461,7.79,1.461" transform="translate(256 -63)" fill="none" stroke="#707070" stroke-width="2"/>
    <path id="Path_123" data-name="Path 123" d="M152.628,306.717s7.3-9.25,7.546-3.895,5.112,1.461,5.112,1.461,9.25-6.086,7.059-1.461,7.79,1.461,7.79,1.461" transform="translate(585 -63)" fill="none" stroke="#707070" stroke-width="2"/>
    <path id="Path_183" data-name="Path 183" d="M152.628,306.717s7.3-9.25,7.546-3.895,5.112,1.461,5.112,1.461,9.25-6.086,7.059-1.461,7.79,1.461,7.79,1.461" transform="translate(980 -63)" fill="none" stroke="#707070" stroke-width="2"/>
    <path id="Path_32" data-name="Path 32" d="M152.628,306.717s7.3-9.25,7.546-3.895,5.112,1.461,5.112,1.461,9.25-6.086,7.059-1.461,7.79,1.461,7.79,1.461" transform="translate(-11 -63)" fill="none" stroke="#707070" stroke-width="2"/>
    <path id="Path_64" data-name="Path 64" d="M152.628,306.717s7.3-9.25,7.546-3.895,5.112,1.461,5.112,1.461,9.25-6.086,7.059-1.461,7.79,1.461,7.79,1.461" transform="translate(256 -63)" fill="none" stroke="#707070" stroke-width="2"/>
    <path id="Path_124" data-name="Path 124" d="M152.628,306.717s7.3-9.25,7.546-3.895,5.112,1.461,5.112,1.461,9.25-6.086,7.059-1.461,7.79,1.461,7.79,1.461" transform="translate(585 -63)" fill="none" stroke="#707070" stroke-width="2"/>
    <path id="Path_184" data-name="Path 184" d="M152.628,306.717s7.3-9.25,7.546-3.895,5.112,1.461,5.112,1.461,9.25-6.086,7.059-1.461,7.79,1.461,7.79,1.461" transform="translate(980 -63)" fill="none" stroke="#707070" stroke-width="2"/>
    <path id="Path_2" data-name="Path 2" d="M152.628,306.717s7.3-9.25,7.546-3.895,5.112,1.461,5.112,1.461,9.25-6.086,7.059-1.461,7.79,1.461,7.79,1.461" transform="translate(-11 -53)" fill="none" stroke="#707070" stroke-width="2"/>
    <path id="Path_65" data-name="Path 65" d="M152.628,306.717s7.3-9.25,7.546-3.895,5.112,1.461,5.112,1.461,9.25-6.086,7.059-1.461,7.79,1.461,7.79,1.461" transform="translate(256 -53)" fill="none" stroke="#707070" stroke-width="2"/>
    <path id="Path_125" data-name="Path 125" d="M152.628,306.717s7.3-9.25,7.546-3.895,5.112,1.461,5.112,1.461,9.25-6.086,7.059-1.461,7.79,1.461,7.79,1.461" transform="translate(585 -53)" fill="none" stroke="#707070" stroke-width="2"/>
    <path id="Path_185" data-name="Path 185" d="M152.628,306.717s7.3-9.25,7.546-3.895,5.112,1.461,5.112,1.461,9.25-6.086,7.059-1.461,7.79,1.461,7.79,1.461" transform="translate(980 -53)" fill="none" stroke="#707070" stroke-width="2"/>
    <path id="Path_33" data-name="Path 33" d="M152.628,306.717s7.3-9.25,7.546-3.895,5.112,1.461,5.112,1.461,9.25-6.086,7.059-1.461,7.79,1.461,7.79,1.461" transform="translate(-11 -53)" fill="none" stroke="#707070" stroke-width="2"/>
    <path id="Path_66" data-name="Path 66" d="M152.628,306.717s7.3-9.25,7.546-3.895,5.112,1.461,5.112,1.461,9.25-6.086,7.059-1.461,7.79,1.461,7.79,1.461" transform="translate(256 -53)" fill="none" stroke="#707070" stroke-width="2"/>
    <path id="Path_126" data-name="Path 126" d="M152.628,306.717s7.3-9.25,7.546-3.895,5.112,1.461,5.112,1.461,9.25-6.086,7.059-1.461,7.79,1.461,7.79,1.461" transform="translate(585 -53)" fill="none" stroke="#707070" stroke-width="2"/>
    <path id="Path_186" data-name="Path 186" d="M152.628,306.717s7.3-9.25,7.546-3.895,5.112,1.461,5.112,1.461,9.25-6.086,7.059-1.461,7.79,1.461,7.79,1.461" transform="translate(980 -53)" fill="none" stroke="#707070" stroke-width="2"/>
    <path id="Path_17" data-name="Path 17" d="M152.628,306.717s7.3-9.25,7.546-3.895,5.112,1.461,5.112,1.461,9.25-6.086,7.059-1.461,7.79,1.461,7.79,1.461" transform="translate(-11 -53)" fill="none" stroke="#707070" stroke-width="2"/>
    <path id="Path_67" data-name="Path 67" d="M152.628,306.717s7.3-9.25,7.546-3.895,5.112,1.461,5.112,1.461,9.25-6.086,7.059-1.461,7.79,1.461,7.79,1.461" transform="translate(256 -53)" fill="none" stroke="#707070" stroke-width="2"/>
    <path id="Path_127" data-name="Path 127" d="M152.628,306.717s7.3-9.25,7.546-3.895,5.112,1.461,5.112,1.461,9.25-6.086,7.059-1.461,7.79,1.461,7.79,1.461" transform="translate(585 -53)" fill="none" stroke="#707070" stroke-width="2"/>
    <path id="Path_187" data-name="Path 187" d="M152.628,306.717s7.3-9.25,7.546-3.895,5.112,1.461,5.112,1.461,9.25-6.086,7.059-1.461,7.79,1.461,7.79,1.461" transform="translate(980 -53)" fill="none" stroke="#707070" stroke-width="2"/>
    <path id="Path_34" data-name="Path 34" d="M152.628,306.717s7.3-9.25,7.546-3.895,5.112,1.461,5.112,1.461,9.25-6.086,7.059-1.461,7.79,1.461,7.79,1.461" transform="translate(-11 -53)" fill="none" stroke="#707070" stroke-width="2"/>
    <path id="Path_68" data-name="Path 68" d="M152.628,306.717s7.3-9.25,7.546-3.895,5.112,1.461,5.112,1.461,9.25-6.086,7.059-1.461,7.79,1.461,7.79,1.461" transform="translate(256 -53)" fill="none" stroke="#707070" stroke-width="2"/>
    <path id="Path_128" data-name="Path 128" d="M152.628,306.717s7.3-9.25,7.546-3.895,5.112,1.461,5.112,1.461,9.25-6.086,7.059-1.461,7.79,1.461,7.79,1.461" transform="translate(585 -53)" fill="none" stroke="#707070" stroke-width="2"/>
    <path id="Path_188" data-name="Path 188" d="M152.628,306.717s7.3-9.25,7.546-3.895,5.112,1.461,5.112,1.461,9.25-6.086,7.059-1.461,7.79,1.461,7.79,1.461" transform="translate(980 -53)" fill="none" stroke="#707070" stroke-width="2"/>
    <path id="Path_3" data-name="Path 3" d="M152.628,306.717s7.3-9.25,7.546-3.895,5.112,1.461,5.112,1.461,9.25-6.086,7.059-1.461,7.79,1.461,7.79,1.461" transform="translate(-11 -43)" fill="none" stroke="#707070" stroke-width="2"/>
    <path id="Path_69" data-name="Path 69" d="M152.628,306.717s7.3-9.25,7.546-3.895,5.112,1.461,5.112,1.461,9.25-6.086,7.059-1.461,7.79,1.461,7.79,1.461" transform="translate(256 -43)" fill="none" stroke="#707070" stroke-width="2"/>
    <path id="Path_129" data-name="Path 129" d="M152.628,306.717s7.3-9.25,7.546-3.895,5.112,1.461,5.112,1.461,9.25-6.086,7.059-1.461,7.79,1.461,7.79,1.461" transform="translate(585 -43)" fill="none" stroke="#707070" stroke-width="2"/>
    <path id="Path_189" data-name="Path 189" d="M152.628,306.717s7.3-9.25,7.546-3.895,5.112,1.461,5.112,1.461,9.25-6.086,7.059-1.461,7.79,1.461,7.79,1.461" transform="translate(980 -43)" fill="none" stroke="#707070" stroke-width="2"/>
    <path id="Path_35" data-name="Path 35" d="M152.628,306.717s7.3-9.25,7.546-3.895,5.112,1.461,5.112,1.461,9.25-6.086,7.059-1.461,7.79,1.461,7.79,1.461" transform="translate(-11 -43)" fill="none" stroke="#707070" stroke-width="2"/>
    <path id="Path_70" data-name="Path 70" d="M152.628,306.717s7.3-9.25,7.546-3.895,5.112,1.461,5.112,1.461,9.25-6.086,7.059-1.461,7.79,1.461,7.79,1.461" transform="translate(256 -43)" fill="none" stroke="#707070" stroke-width="2"/>
    <path id="Path_130" data-name="Path 130" d="M152.628,306.717s7.3-9.25,7.546-3.895,5.112,1.461,5.112,1.461,9.25-6.086,7.059-1.461,7.79,1.461,7.79,1.461" transform="translate(585 -43)" fill="none" stroke="#707070" stroke-width="2"/>
    <path id="Path_190" data-name="Path 190" d="M152.628,306.717s7.3-9.25,7.546-3.895,5.112,1.461,5.112,1.461,9.25-6.086,7.059-1.461,7.79,1.461,7.79,1.461" transform="translate(980 -43)" fill="none" stroke="#707070" stroke-width="2"/>
    <path id="Path_18" data-name="Path 18" d="M152.628,306.717s7.3-9.25,7.546-3.895,5.112,1.461,5.112,1.461,9.25-6.086,7.059-1.461,7.79,1.461,7.79,1.461" transform="translate(-11 -43)" fill="none" stroke="#707070" stroke-width="2"/>
    <path id="Path_71" data-name="Path 71" d="M152.628,306.717s7.3-9.25,7.546-3.895,5.112,1.461,5.112,1.461,9.25-6.086,7.059-1.461,7.79,1.461,7.79,1.461" transform="translate(256 -43)" fill="none" stroke="#707070" stroke-width="2"/>
    <path id="Path_131" data-name="Path 131" d="M152.628,306.717s7.3-9.25,7.546-3.895,5.112,1.461,5.112,1.461,9.25-6.086,7.059-1.461,7.79,1.461,7.79,1.461" transform="translate(585 -43)" fill="none" stroke="#707070" stroke-width="2"/>
    <path id="Path_191" data-name="Path 191" d="M152.628,306.717s7.3-9.25,7.546-3.895,5.112,1.461,5.112,1.461,9.25-6.086,7.059-1.461,7.79,1.461,7.79,1.461" transform="translate(980 -43)" fill="none" stroke="#707070" stroke-width="2"/>
    <path id="Path_36" data-name="Path 36" d="M152.628,306.717s7.3-9.25,7.546-3.895,5.112,1.461,5.112,1.461,9.25-6.086,7.059-1.461,7.79,1.461,7.79,1.461" transform="translate(-11 -43)" fill="none" stroke="#707070" stroke-width="2"/>
    <path id="Path_72" data-name="Path 72" d="M152.628,306.717s7.3-9.25,7.546-3.895,5.112,1.461,5.112,1.461,9.25-6.086,7.059-1.461,7.79,1.461,7.79,1.461" transform="translate(256 -43)" fill="none" stroke="#707070" stroke-width="2"/>
    <path id="Path_132" data-name="Path 132" d="M152.628,306.717s7.3-9.25,7.546-3.895,5.112,1.461,5.112,1.461,9.25-6.086,7.059-1.461,7.79,1.461,7.79,1.461" transform="translate(585 -43)" fill="none" stroke="#707070" stroke-width="2"/>
    <path id="Path_192" data-name="Path 192" d="M152.628,306.717s7.3-9.25,7.546-3.895,5.112,1.461,5.112,1.461,9.25-6.086,7.059-1.461,7.79,1.461,7.79,1.461" transform="translate(980 -43)" fill="none" stroke="#707070" stroke-width="2"/>
    <path id="Path_4" data-name="Path 4" d="M152.628,306.717s7.3-9.25,7.546-3.895,5.112,1.461,5.112,1.461,9.25-6.086,7.059-1.461,7.79,1.461,7.79,1.461" transform="translate(-11 -33)" fill="none" stroke="#707070" stroke-width="2"/>
    <path id="Path_73" data-name="Path 73" d="M152.628,306.717s7.3-9.25,7.546-3.895,5.112,1.461,5.112,1.461,9.25-6.086,7.059-1.461,7.79,1.461,7.79,1.461" transform="translate(256 -33)" fill="none" stroke="#707070" stroke-width="2"/>
    <path id="Path_133" data-name="Path 133" d="M152.628,306.717s7.3-9.25,7.546-3.895,5.112,1.461,5.112,1.461,9.25-6.086,7.059-1.461,7.79,1.461,7.79,1.461" transform="translate(585 -33)" fill="none" stroke="#707070" stroke-width="2"/>
    <path id="Path_193" data-name="Path 193" d="M152.628,306.717s7.3-9.25,7.546-3.895,5.112,1.461,5.112,1.461,9.25-6.086,7.059-1.461,7.79,1.461,7.79,1.461" transform="translate(980 -33)" fill="none" stroke="#707070" stroke-width="2"/>
    <path id="Path_37" data-name="Path 37" d="M152.628,306.717s7.3-9.25,7.546-3.895,5.112,1.461,5.112,1.461,9.25-6.086,7.059-1.461,7.79,1.461,7.79,1.461" transform="translate(-11 -33)" fill="none" stroke="#707070" stroke-width="2"/>
    <path id="Path_74" data-name="Path 74" d="M152.628,306.717s7.3-9.25,7.546-3.895,5.112,1.461,5.112,1.461,9.25-6.086,7.059-1.461,7.79,1.461,7.79,1.461" transform="translate(256 -33)" fill="none" stroke="#707070" stroke-width="2"/>
    <path id="Path_134" data-name="Path 134" d="M152.628,306.717s7.3-9.25,7.546-3.895,5.112,1.461,5.112,1.461,9.25-6.086,7.059-1.461,7.79,1.461,7.79,1.461" transform="translate(585 -33)" fill="none" stroke="#707070" stroke-width="2"/>
    <path id="Path_194" data-name="Path 194" d="M152.628,306.717s7.3-9.25,7.546-3.895,5.112,1.461,5.112,1.461,9.25-6.086,7.059-1.461,7.79,1.461,7.79,1.461" transform="translate(980 -33)" fill="none" stroke="#707070" stroke-width="2"/>
    <path id="Path_19" data-name="Path 19" d="M152.628,306.717s7.3-9.25,7.546-3.895,5.112,1.461,5.112,1.461,9.25-6.086,7.059-1.461,7.79,1.461,7.79,1.461" transform="translate(-11 -33)" fill="none" stroke="#707070" stroke-width="2"/>
    <path id="Path_75" data-name="Path 75" d="M152.628,306.717s7.3-9.25,7.546-3.895,5.112,1.461,5.112,1.461,9.25-6.086,7.059-1.461,7.79,1.461,7.79,1.461" transform="translate(256 -33)" fill="none" stroke="#707070" stroke-width="2"/>
    <path id="Path_135" data-name="Path 135" d="M152.628,306.717s7.3-9.25,7.546-3.895,5.112,1.461,5.112,1.461,9.25-6.086,7.059-1.461,7.79,1.461,7.79,1.461" transform="translate(585 -33)" fill="none" stroke="#707070" stroke-width="2"/>
    <path id="Path_195" data-name="Path 195" d="M152.628,306.717s7.3-9.25,7.546-3.895,5.112,1.461,5.112,1.461,9.25-6.086,7.059-1.461,7.79,1.461,7.79,1.461" transform="translate(980 -33)" fill="none" stroke="#707070" stroke-width="2"/>
    <path id="Path_38" data-name="Path 38" d="M152.628,306.717s7.3-9.25,7.546-3.895,5.112,1.461,5.112,1.461,9.25-6.086,7.059-1.461,7.79,1.461,7.79,1.461" transform="translate(-11 -33)" fill="none" stroke="#707070" stroke-width="2"/>
    <path id="Path_76" data-name="Path 76" d="M152.628,306.717s7.3-9.25,7.546-3.895,5.112,1.461,5.112,1.461,9.25-6.086,7.059-1.461,7.79,1.461,7.79,1.461" transform="translate(256 -33)" fill="none" stroke="#707070" stroke-width="2"/>
    <path id="Path_136" data-name="Path 136" d="M152.628,306.717s7.3-9.25,7.546-3.895,5.112,1.461,5.112,1.461,9.25-6.086,7.059-1.461,7.79,1.461,7.79,1.461" transform="translate(585 -33)" fill="none" stroke="#707070" stroke-width="2"/>
    <path id="Path_196" data-name="Path 196" d="M152.628,306.717s7.3-9.25,7.546-3.895,5.112,1.461,5.112,1.461,9.25-6.086,7.059-1.461,7.79,1.461,7.79,1.461" transform="translate(980 -33)" fill="none" stroke="#707070" stroke-width="2"/>
    <path id="Path_5" data-name="Path 5" d="M152.628,306.717s7.3-9.25,7.546-3.895,5.112,1.461,5.112,1.461,9.25-6.086,7.059-1.461,7.79,1.461,7.79,1.461" transform="translate(-11 -23)" fill="none" stroke="#707070" stroke-width="2"/>
    <path id="Path_77" data-name="Path 77" d="M152.628,306.717s7.3-9.25,7.546-3.895,5.112,1.461,5.112,1.461,9.25-6.086,7.059-1.461,7.79,1.461,7.79,1.461" transform="translate(256 -23)" fill="none" stroke="#707070" stroke-width="2"/>
    <path id="Path_137" data-name="Path 137" d="M152.628,306.717s7.3-9.25,7.546-3.895,5.112,1.461,5.112,1.461,9.25-6.086,7.059-1.461,7.79,1.461,7.79,1.461" transform="translate(585 -23)" fill="none" stroke="#707070" stroke-width="2"/>
    <path id="Path_197" data-name="Path 197" d="M152.628,306.717s7.3-9.25,7.546-3.895,5.112,1.461,5.112,1.461,9.25-6.086,7.059-1.461,7.79,1.461,7.79,1.461" transform="translate(980 -23)" fill="none" stroke="#707070" stroke-width="2"/>
    <path id="Path_39" data-name="Path 39" d="M152.628,306.717s7.3-9.25,7.546-3.895,5.112,1.461,5.112,1.461,9.25-6.086,7.059-1.461,7.79,1.461,7.79,1.461" transform="translate(-11 -23)" fill="none" stroke="#707070" stroke-width="2"/>
    <path id="Path_78" data-name="Path 78" d="M152.628,306.717s7.3-9.25,7.546-3.895,5.112,1.461,5.112,1.461,9.25-6.086,7.059-1.461,7.79,1.461,7.79,1.461" transform="translate(256 -23)" fill="none" stroke="#707070" stroke-width="2"/>
    <path id="Path_138" data-name="Path 138" d="M152.628,306.717s7.3-9.25,7.546-3.895,5.112,1.461,5.112,1.461,9.25-6.086,7.059-1.461,7.79,1.461,7.79,1.461" transform="translate(585 -23)" fill="none" stroke="#707070" stroke-width="2"/>
    <path id="Path_198" data-name="Path 198" d="M152.628,306.717s7.3-9.25,7.546-3.895,5.112,1.461,5.112,1.461,9.25-6.086,7.059-1.461,7.79,1.461,7.79,1.461" transform="translate(980 -23)" fill="none" stroke="#707070" stroke-width="2"/>
    <path id="Path_20" data-name="Path 20" d="M152.628,306.717s7.3-9.25,7.546-3.895,5.112,1.461,5.112,1.461,9.25-6.086,7.059-1.461,7.79,1.461,7.79,1.461" transform="translate(-11 -23)" fill="none" stroke="#707070" stroke-width="2"/>
    <path id="Path_79" data-name="Path 79" d="M152.628,306.717s7.3-9.25,7.546-3.895,5.112,1.461,5.112,1.461,9.25-6.086,7.059-1.461,7.79,1.461,7.79,1.461" transform="translate(256 -23)" fill="none" stroke="#707070" stroke-width="2"/>
    <path id="Path_139" data-name="Path 139" d="M152.628,306.717s7.3-9.25,7.546-3.895,5.112,1.461,5.112,1.461,9.25-6.086,7.059-1.461,7.79,1.461,7.79,1.461" transform="translate(585 -23)" fill="none" stroke="#707070" stroke-width="2"/>
    <path id="Path_199" data-name="Path 199" d="M152.628,306.717s7.3-9.25,7.546-3.895,5.112,1.461,5.112,1.461,9.25-6.086,7.059-1.461,7.79,1.461,7.79,1.461" transform="translate(980 -23)" fill="none" stroke="#707070" stroke-width="2"/>
    <path id="Path_40" data-name="Path 40" d="M152.628,306.717s7.3-9.25,7.546-3.895,5.112,1.461,5.112,1.461,9.25-6.086,7.059-1.461,7.79,1.461,7.79,1.461" transform="translate(-11 -23)" fill="none" stroke="#707070" stroke-width="2"/>
    <path id="Path_80" data-name="Path 80" d="M152.628,306.717s7.3-9.25,7.546-3.895,5.112,1.461,5.112,1.461,9.25-6.086,7.059-1.461,7.79,1.461,7.79,1.461" transform="translate(256 -23)" fill="none" stroke="#707070" stroke-width="2"/>
    <path id="Path_140" data-name="Path 140" d="M152.628,306.717s7.3-9.25,7.546-3.895,5.112,1.461,5.112,1.461,9.25-6.086,7.059-1.461,7.79,1.461,7.79,1.461" transform="translate(585 -23)" fill="none" stroke="#707070" stroke-width="2"/>
    <path id="Path_200" data-name="Path 200" d="M152.628,306.717s7.3-9.25,7.546-3.895,5.112,1.461,5.112,1.461,9.25-6.086,7.059-1.461,7.79,1.461,7.79,1.461" transform="translate(980 -23)" fill="none" stroke="#707070" stroke-width="2"/>
    <g id="Rectangle_7" data-name="Rectangle 7" transform="translate(677 150)" fill="none" stroke="#707070" stroke-width="2" stroke-dasharray="7">
      <rect width="231" height="388" stroke="none"/>
      <rect x="1" y="1" width="229" height="386" fill="none"/>
    </g>
    <g id="Rectangle_8" data-name="Rectangle 8" transform="translate(205 229)" fill="#fff" stroke="#707070" stroke-width="2">
      <rect width="48" height="71" stroke="none"/>
      <rect x="1" y="1" width="46" height="69" fill="none"/>
    </g>
    <g id="Rectangle_28" data-name="Rectangle 28" transform="translate(472 229)" fill="#fff" stroke="#707070" stroke-width="2">
      <rect width="48" height="71" stroke="none"/>
      <rect x="1" y="1" width="46" height="69" fill="none"/>
    </g>
    <g id="Rectangle_41" data-name="Rectangle 41" transform="translate(801 229)" fill="#fff" stroke="#707070" stroke-width="2">
      <rect width="48" height="71" stroke="none"/>
      <rect x="1" y="1" width="46" height="69" fill="none"/>
    </g>
    <g id="Rectangle_54" data-name="Rectangle 54" transform="translate(1196 229)" fill="#fff" stroke="#707070" stroke-width="2">
      <rect width="48" height="71" stroke="none"/>
      <rect x="1" y="1" width="46" height="69" fill="none"/>
    </g>
    <g id="Rectangle_17" data-name="Rectangle 17" transform="translate(205 229)" fill="#fff" stroke="#707070" stroke-width="2">
      <rect width="48" height="71" stroke="none"/>
      <rect x="1" y="1" width="46" height="69" fill="none"/>
    </g>
    <g id="Rectangle_29" data-name="Rectangle 29" transform="translate(472 229)" fill="#fff" stroke="#707070" stroke-width="2">
      <rect width="48" height="71" stroke="none"/>
      <rect x="1" y="1" width="46" height="69" fill="none"/>
    </g>
    <g id="Rectangle_42" data-name="Rectangle 42" transform="translate(801 229)" fill="#fff" stroke="#707070" stroke-width="2">
      <rect width="48" height="71" stroke="none"/>
      <rect x="1" y="1" width="46" height="69" fill="none"/>
    </g>
    <g id="Rectangle_55" data-name="Rectangle 55" transform="translate(1196 229)" fill="#fff" stroke="#707070" stroke-width="2">
      <rect width="48" height="71" stroke="none"/>
      <rect x="1" y="1" width="46" height="69" fill="none"/>
    </g>
    <g id="Rectangle_12" data-name="Rectangle 12" transform="translate(205 229)" fill="#fff" stroke="#707070" stroke-width="2">
      <rect width="48" height="71" stroke="none"/>
      <rect x="1" y="1" width="46" height="69" fill="none"/>
    </g>
    <g id="Rectangle_30" data-name="Rectangle 30" transform="translate(472 229)" fill="#fff" stroke="#707070" stroke-width="2">
      <rect width="48" height="71" stroke="none"/>
      <rect x="1" y="1" width="46" height="69" fill="none"/>
    </g>
    <g id="Rectangle_43" data-name="Rectangle 43" transform="translate(801 229)" fill="#fff" stroke="#707070" stroke-width="2">
      <rect width="48" height="71" stroke="none"/>
      <rect x="1" y="1" width="46" height="69" fill="none"/>
    </g>
    <g id="Rectangle_56" data-name="Rectangle 56" transform="translate(1196 229)" fill="#fff" stroke="#707070" stroke-width="2">
      <rect width="48" height="71" stroke="none"/>
      <rect x="1" y="1" width="46" height="69" fill="none"/>
    </g>
    <g id="Rectangle_18" data-name="Rectangle 18" transform="translate(205 229)" fill="#fff" stroke="#707070" stroke-width="2">
      <rect width="48" height="71" stroke="none"/>
      <rect x="1" y="1" width="46" height="69" fill="none"/>
    </g>
    <g id="Rectangle_31" data-name="Rectangle 31" transform="translate(472 229)" fill="#fff" stroke="#707070" stroke-width="2">
      <rect width="48" height="71" stroke="none"/>
      <rect x="1" y="1" width="46" height="69" fill="none"/>
    </g>
    <g id="Rectangle_44" data-name="Rectangle 44" transform="translate(801 229)" fill="#fff" stroke="#707070" stroke-width="2">
      <rect width="48" height="71" stroke="none"/>
      <rect x="1" y="1" width="46" height="69" fill="none"/>
    </g>
    <g id="Rectangle_57" data-name="Rectangle 57" transform="translate(1196 229)" fill="#fff" stroke="#707070" stroke-width="2">
      <rect width="48" height="71" stroke="none"/>
      <rect x="1" y="1" width="46" height="69" fill="none"/>
    </g>
    <line id="Line_2" data-name="Line 2" y1="12" x2="12" transform="translate(205.5 229.5)" fill="none" stroke="#707070" stroke-width="2"/>
    <line id="Line_21" data-name="Line 21" y1="12" x2="12" transform="translate(472.5 229.5)" fill="none" stroke="#707070" stroke-width="2"/>
    <line id="Line_33" data-name="Line 33" y1="12" x2="12" transform="translate(801.5 229.5)" fill="none" stroke="#707070" stroke-width="2"/>
    <line id="Line_45" data-name="Line 45" y1="12" x2="12" transform="translate(1196.5 229.5)" fill="none" stroke="#707070" stroke-width="2"/>
    <line id="Line_11" data-name="Line 11" y1="12" x2="12" transform="translate(205.5 229.5)" fill="none" stroke="#707070" stroke-width="2"/>
    <line id="Line_22" data-name="Line 22" y1="12" x2="12" transform="translate(472.5 229.5)" fill="none" stroke="#707070" stroke-width="2"/>
    <line id="Line_34" data-name="Line 34" y1="12" x2="12" transform="translate(801.5 229.5)" fill="none" stroke="#707070" stroke-width="2"/>
    <line id="Line_46" data-name="Line 46" y1="12" x2="12" transform="translate(1196.5 229.5)" fill="none" stroke="#707070" stroke-width="2"/>
    <line id="Line_6" data-name="Line 6" y1="12" x2="12" transform="translate(205.5 229.5)" fill="none" stroke="#707070" stroke-width="2"/>
    <line id="Line_23" data-name="Line 23" y1="12" x2="12" transform="translate(472.5 229.5)" fill="none" stroke="#707070" stroke-width="2"/>
    <line id="Line_35" data-name="Line 35" y1="12" x2="12" transform="translate(801.5 229.5)" fill="none" stroke="#707070" stroke-width="2"/>
    <line id="Line_47" data-name="Line 47" y1="12" x2="12" transform="translate(1196.5 229.5)" fill="none" stroke="#707070" stroke-width="2"/>
    <line id="Line_12" data-name="Line 12" y1="12" x2="12" transform="translate(205.5 229.5)" fill="none" stroke="#707070" stroke-width="2"/>
    <line id="Line_24" data-name="Line 24" y1="12" x2="12" transform="translate(472.5 229.5)" fill="none" stroke="#707070" stroke-width="2"/>
    <line id="Line_36" data-name="Line 36" y1="12" x2="12" transform="translate(801.5 229.5)" fill="none" stroke="#707070" stroke-width="2"/>
    <line id="Line_48" data-name="Line 48" y1="12" x2="12" transform="translate(1196.5 229.5)" fill="none" stroke="#707070" stroke-width="2"/>
    <path id="Path_6" data-name="Path 6" d="M152.628,306.717s7.3-9.25,7.546-3.895,5.112,1.461,5.112,1.461,9.25-6.086,7.059-1.461,7.79,1.461,7.79,1.461" transform="translate(63 -63)" fill="none" stroke="#707070" stroke-width="2"/>
    <path id="Path_101" data-name="Path 101" d="M152.628,306.717s7.3-9.25,7.546-3.895,5.112,1.461,5.112,1.461,9.25-6.086,7.059-1.461,7.79,1.461,7.79,1.461" transform="translate(330 -63)" fill="none" stroke="#707070" stroke-width="2"/>
    <path id="Path_161" data-name="Path 161" d="M152.628,306.717s7.3-9.25,7.546-3.895,5.112,1.461,5.112,1.461,9.25-6.086,7.059-1.461,7.79,1.461,7.79,1.461" transform="translate(659 -63)" fill="none" stroke="#707070" stroke-width="2"/>
    <path id="Path_221" data-name="Path 221" d="M152.628,306.717s7.3-9.25,7.546-3.895,5.112,1.461,5.112,1.461,9.25-6.086,7.059-1.461,7.79,1.461,7.79,1.461" transform="translate(1054 -63)" fill="none" stroke="#707070" stroke-width="2"/>
    <path id="Path_51" data-name="Path 51" d="M152.628,306.717s7.3-9.25,7.546-3.895,5.112,1.461,5.112,1.461,9.25-6.086,7.059-1.461,7.79,1.461,7.79,1.461" transform="translate(63 -63)" fill="none" stroke="#707070" stroke-width="2"/>
    <path id="Path_102" data-name="Path 102" d="M152.628,306.717s7.3-9.25,7.546-3.895,5.112,1.461,5.112,1.461,9.25-6.086,7.059-1.461,7.79,1.461,7.79,1.461" transform="translate(330 -63)" fill="none" stroke="#707070" stroke-width="2"/>
    <path id="Path_162" data-name="Path 162" d="M152.628,306.717s7.3-9.25,7.546-3.895,5.112,1.461,5.112,1.461,9.25-6.086,7.059-1.461,7.79,1.461,7.79,1.461" transform="translate(659 -63)" fill="none" stroke="#707070" stroke-width="2"/>
    <path id="Path_222" data-name="Path 222" d="M152.628,306.717s7.3-9.25,7.546-3.895,5.112,1.461,5.112,1.461,9.25-6.086,7.059-1.461,7.79,1.461,7.79,1.461" transform="translate(1054 -63)" fill="none" stroke="#707070" stroke-width="2"/>
    <path id="Path_26" data-name="Path 26" d="M152.628,306.717s7.3-9.25,7.546-3.895,5.112,1.461,5.112,1.461,9.25-6.086,7.059-1.461,7.79,1.461,7.79,1.461" transform="translate(63 -63)" fill="none" stroke="#707070" stroke-width="2"/>
    <path id="Path_103" data-name="Path 103" d="M152.628,306.717s7.3-9.25,7.546-3.895,5.112,1.461,5.112,1.461,9.25-6.086,7.059-1.461,7.79,1.461,7.79,1.461" transform="translate(330 -63)" fill="none" stroke="#707070" stroke-width="2"/>
    <path id="Path_163" data-name="Path 163" d="M152.628,306.717s7.3-9.25,7.546-3.895,5.112,1.461,5.112,1.461,9.25-6.086,7.059-1.461,7.79,1.461,7.79,1.461" transform="translate(659 -63)" fill="none" stroke="#707070" stroke-width="2"/>
    <path id="Path_223" data-name="Path 223" d="M152.628,306.717s7.3-9.25,7.546-3.895,5.112,1.461,5.112,1.461,9.25-6.086,7.059-1.461,7.79,1.461,7.79,1.461" transform="translate(1054 -63)" fill="none" stroke="#707070" stroke-width="2"/>
    <path id="Path_52" data-name="Path 52" d="M152.628,306.717s7.3-9.25,7.546-3.895,5.112,1.461,5.112,1.461,9.25-6.086,7.059-1.461,7.79,1.461,7.79,1.461" transform="translate(63 -63)" fill="none" stroke="#707070" stroke-width="2"/>
    <path id="Path_104" data-name="Path 104" d="M152.628,306.717s7.3-9.25,7.546-3.895,5.112,1.461,5.112,1.461,9.25-6.086,7.059-1.461,7.79,1.461,7.79,1.461" transform="translate(330 -63)" fill="none" stroke="#707070" stroke-width="2"/>
    <path id="Path_164" data-name="Path 164" d="M152.628,306.717s7.3-9.25,7.546-3.895,5.112,1.461,5.112,1.461,9.25-6.086,7.059-1.461,7.79,1.461,7.79,1.461" transform="translate(659 -63)" fill="none" stroke="#707070" stroke-width="2"/>
    <path id="Path_224" data-name="Path 224" d="M152.628,306.717s7.3-9.25,7.546-3.895,5.112,1.461,5.112,1.461,9.25-6.086,7.059-1.461,7.79,1.461,7.79,1.461" transform="translate(1054 -63)" fill="none" stroke="#707070" stroke-width="2"/>
    <path id="Path_7" data-name="Path 7" d="M152.628,306.717s7.3-9.25,7.546-3.895,5.112,1.461,5.112,1.461,9.25-6.086,7.059-1.461,7.79,1.461,7.79,1.461" transform="translate(63 -53)" fill="none" stroke="#707070" stroke-width="2"/>
    <path id="Path_105" data-name="Path 105" d="M152.628,306.717s7.3-9.25,7.546-3.895,5.112,1.461,5.112,1.461,9.25-6.086,7.059-1.461,7.79,1.461,7.79,1.461" transform="translate(330 -53)" fill="none" stroke="#707070" stroke-width="2"/>
    <path id="Path_165" data-name="Path 165" d="M152.628,306.717s7.3-9.25,7.546-3.895,5.112,1.461,5.112,1.461,9.25-6.086,7.059-1.461,7.79,1.461,7.79,1.461" transform="translate(659 -53)" fill="none" stroke="#707070" stroke-width="2"/>
    <path id="Path_225" data-name="Path 225" d="M152.628,306.717s7.3-9.25,7.546-3.895,5.112,1.461,5.112,1.461,9.25-6.086,7.059-1.461,7.79,1.461,7.79,1.461" transform="translate(1054 -53)" fill="none" stroke="#707070" stroke-width="2"/>
    <path id="Path_53" data-name="Path 53" d="M152.628,306.717s7.3-9.25,7.546-3.895,5.112,1.461,5.112,1.461,9.25-6.086,7.059-1.461,7.79,1.461,7.79,1.461" transform="translate(63 -53)" fill="none" stroke="#707070" stroke-width="2"/>
    <path id="Path_106" data-name="Path 106" d="M152.628,306.717s7.3-9.25,7.546-3.895,5.112,1.461,5.112,1.461,9.25-6.086,7.059-1.461,7.79,1.461,7.79,1.461" transform="translate(330 -53)" fill="none" stroke="#707070" stroke-width="2"/>
    <path id="Path_166" data-name="Path 166" d="M152.628,306.717s7.3-9.25,7.546-3.895,5.112,1.461,5.112,1.461,9.25-6.086,7.059-1.461,7.79,1.461,7.79,1.461" transform="translate(659 -53)" fill="none" stroke="#707070" stroke-width="2"/>
    <path id="Path_226" data-name="Path 226" d="M152.628,306.717s7.3-9.25,7.546-3.895,5.112,1.461,5.112,1.461,9.25-6.086,7.059-1.461,7.79,1.461,7.79,1.461" transform="translate(1054 -53)" fill="none" stroke="#707070" stroke-width="2"/>
    <path id="Path_27" data-name="Path 27" d="M152.628,306.717s7.3-9.25,7.546-3.895,5.112,1.461,5.112,1.461,9.25-6.086,7.059-1.461,7.79,1.461,7.79,1.461" transform="translate(63 -53)" fill="none" stroke="#707070" stroke-width="2"/>
    <path id="Path_107" data-name="Path 107" d="M152.628,306.717s7.3-9.25,7.546-3.895,5.112,1.461,5.112,1.461,9.25-6.086,7.059-1.461,7.79,1.461,7.79,1.461" transform="translate(330 -53)" fill="none" stroke="#707070" stroke-width="2"/>
    <path id="Path_167" data-name="Path 167" d="M152.628,306.717s7.3-9.25,7.546-3.895,5.112,1.461,5.112,1.461,9.25-6.086,7.059-1.461,7.79,1.461,7.79,1.461" transform="translate(659 -53)" fill="none" stroke="#707070" stroke-width="2"/>
    <path id="Path_227" data-name="Path 227" d="M152.628,306.717s7.3-9.25,7.546-3.895,5.112,1.461,5.112,1.461,9.25-6.086,7.059-1.461,7.79,1.461,7.79,1.461" transform="translate(1054 -53)" fill="none" stroke="#707070" stroke-width="2"/>
    <path id="Path_54" data-name="Path 54" d="M152.628,306.717s7.3-9.25,7.546-3.895,5.112,1.461,5.112,1.461,9.25-6.086,7.059-1.461,7.79,1.461,7.79,1.461" transform="translate(63 -53)" fill="none" stroke="#707070" stroke-width="2"/>
    <path id="Path_108" data-name="Path 108" d="M152.628,306.717s7.3-9.25,7.546-3.895,5.112,1.461,5.112,1.461,9.25-6.086,7.059-1.461,7.79,1.461,7.79,1.461" transform="translate(330 -53)" fill="none" stroke="#707070" stroke-width="2"/>
    <path id="Path_168" data-name="Path 168" d="M152.628,306.717s7.3-9.25,7.546-3.895,5.112,1.461,5.112,1.461,9.25-6.086,7.059-1.461,7.79,1.461,7.79,1.461" transform="translate(659 -53)" fill="none" stroke="#707070" stroke-width="2"/>
    <path id="Path_228" data-name="Path 228" d="M152.628,306.717s7.3-9.25,7.546-3.895,5.112,1.461,5.112,1.461,9.25-6.086,7.059-1.461,7.79,1.461,7.79,1.461" transform="translate(1054 -53)" fill="none" stroke="#707070" stroke-width="2"/>
    <path id="Path_8" data-name="Path 8" d="M152.628,306.717s7.3-9.25,7.546-3.895,5.112,1.461,5.112,1.461,9.25-6.086,7.059-1.461,7.79,1.461,7.79,1.461" transform="translate(63 -43)" fill="none" stroke="#707070" stroke-width="2"/>
    <path id="Path_109" data-name="Path 109" d="M152.628,306.717s7.3-9.25,7.546-3.895,5.112,1.461,5.112,1.461,9.25-6.086,7.059-1.461,7.79,1.461,7.79,1.461" transform="translate(330 -43)" fill="none" stroke="#707070" stroke-width="2"/>
    <path id="Path_169" data-name="Path 169" d="M152.628,306.717s7.3-9.25,7.546-3.895,5.112,1.461,5.112,1.461,9.25-6.086,7.059-1.461,7.79,1.461,7.79,1.461" transform="translate(659 -43)" fill="none" stroke="#707070" stroke-width="2"/>
    <path id="Path_229" data-name="Path 229" d="M152.628,306.717s7.3-9.25,7.546-3.895,5.112,1.461,5.112,1.461,9.25-6.086,7.059-1.461,7.79,1.461,7.79,1.461" transform="translate(1054 -43)" fill="none" stroke="#707070" stroke-width="2"/>
    <path id="Path_55" data-name="Path 55" d="M152.628,306.717s7.3-9.25,7.546-3.895,5.112,1.461,5.112,1.461,9.25-6.086,7.059-1.461,7.79,1.461,7.79,1.461" transform="translate(63 -43)" fill="none" stroke="#707070" stroke-width="2"/>
    <path id="Path_110" data-name="Path 110" d="M152.628,306.717s7.3-9.25,7.546-3.895,5.112,1.461,5.112,1.461,9.25-6.086,7.059-1.461,7.79,1.461,7.79,1.461" transform="translate(330 -43)" fill="none" stroke="#707070" stroke-width="2"/>
    <path id="Path_170" data-name="Path 170" d="M152.628,306.717s7.3-9.25,7.546-3.895,5.112,1.461,5.112,1.461,9.25-6.086,7.059-1.461,7.79,1.461,7.79,1.461" transform="translate(659 -43)" fill="none" stroke="#707070" stroke-width="2"/>
    <path id="Path_230" data-name="Path 230" d="M152.628,306.717s7.3-9.25,7.546-3.895,5.112,1.461,5.112,1.461,9.25-6.086,7.059-1.461,7.79,1.461,7.79,1.461" transform="translate(1054 -43)" fill="none" stroke="#707070" stroke-width="2"/>
    <path id="Path_28" data-name="Path 28" d="M152.628,306.717s7.3-9.25,7.546-3.895,5.112,1.461,5.112,1.461,9.25-6.086,7.059-1.461,7.79,1.461,7.79,1.461" transform="translate(63 -43)" fill="none" stroke="#707070" stroke-width="2"/>
    <path id="Path_111" data-name="Path 111" d="M152.628,306.717s7.3-9.25,7.546-3.895,5.112,1.461,5.112,1.461,9.25-6.086,7.059-1.461,7.79,1.461,7.79,1.461" transform="translate(330 -43)" fill="none" stroke="#707070" stroke-width="2"/>
    <path id="Path_171" data-name="Path 171" d="M152.628,306.717s7.3-9.25,7.546-3.895,5.112,1.461,5.112,1.461,9.25-6.086,7.059-1.461,7.79,1.461,7.79,1.461" transform="translate(659 -43)" fill="none" stroke="#707070" stroke-width="2"/>
    <path id="Path_231" data-name="Path 231" d="M152.628,306.717s7.3-9.25,7.546-3.895,5.112,1.461,5.112,1.461,9.25-6.086,7.059-1.461,7.79,1.461,7.79,1.461" transform="translate(1054 -43)" fill="none" stroke="#707070" stroke-width="2"/>
    <path id="Path_56" data-name="Path 56" d="M152.628,306.717s7.3-9.25,7.546-3.895,5.112,1.461,5.112,1.461,9.25-6.086,7.059-1.461,7.79,1.461,7.79,1.461" transform="translate(63 -43)" fill="none" stroke="#707070" stroke-width="2"/>
    <path id="Path_112" data-name="Path 112" d="M152.628,306.717s7.3-9.25,7.546-3.895,5.112,1.461,5.112,1.461,9.25-6.086,7.059-1.461,7.79,1.461,7.79,1.461" transform="translate(330 -43)" fill="none" stroke="#707070" stroke-width="2"/>
    <path id="Path_172" data-name="Path 172" d="M152.628,306.717s7.3-9.25,7.546-3.895,5.112,1.461,5.112,1.461,9.25-6.086,7.059-1.461,7.79,1.461,7.79,1.461" transform="translate(659 -43)" fill="none" stroke="#707070" stroke-width="2"/>
    <path id="Path_232" data-name="Path 232" d="M152.628,306.717s7.3-9.25,7.546-3.895,5.112,1.461,5.112,1.461,9.25-6.086,7.059-1.461,7.79,1.461,7.79,1.461" transform="translate(1054 -43)" fill="none" stroke="#707070" stroke-width="2"/>
    <path id="Path_9" data-name="Path 9" d="M152.628,306.717s7.3-9.25,7.546-3.895,5.112,1.461,5.112,1.461,9.25-6.086,7.059-1.461,7.79,1.461,7.79,1.461" transform="translate(63 -33)" fill="none" stroke="#707070" stroke-width="2"/>
    <path id="Path_113" data-name="Path 113" d="M152.628,306.717s7.3-9.25,7.546-3.895,5.112,1.461,5.112,1.461,9.25-6.086,7.059-1.461,7.79,1.461,7.79,1.461" transform="translate(330 -33)" fill="none" stroke="#707070" stroke-width="2"/>
    <path id="Path_173" data-name="Path 173" d="M152.628,306.717s7.3-9.25,7.546-3.895,5.112,1.461,5.112,1.461,9.25-6.086,7.059-1.461,7.79,1.461,7.79,1.461" transform="translate(659 -33)" fill="none" stroke="#707070" stroke-width="2"/>
    <path id="Path_233" data-name="Path 233" d="M152.628,306.717s7.3-9.25,7.546-3.895,5.112,1.461,5.112,1.461,9.25-6.086,7.059-1.461,7.79,1.461,7.79,1.461" transform="translate(1054 -33)" fill="none" stroke="#707070" stroke-width="2"/>
    <path id="Path_57" data-name="Path 57" d="M152.628,306.717s7.3-9.25,7.546-3.895,5.112,1.461,5.112,1.461,9.25-6.086,7.059-1.461,7.79,1.461,7.79,1.461" transform="translate(63 -33)" fill="none" stroke="#707070" stroke-width="2"/>
    <path id="Path_114" data-name="Path 114" d="M152.628,306.717s7.3-9.25,7.546-3.895,5.112,1.461,5.112,1.461,9.25-6.086,7.059-1.461,7.79,1.461,7.79,1.461" transform="translate(330 -33)" fill="none" stroke="#707070" stroke-width="2"/>
    <path id="Path_174" data-name="Path 174" d="M152.628,306.717s7.3-9.25,7.546-3.895,5.112,1.461,5.112,1.461,9.25-6.086,7.059-1.461,7.79,1.461,7.79,1.461" transform="translate(659 -33)" fill="none" stroke="#707070" stroke-width="2"/>
    <path id="Path_234" data-name="Path 234" d="M152.628,306.717s7.3-9.25,7.546-3.895,5.112,1.461,5.112,1.461,9.25-6.086,7.059-1.461,7.79,1.461,7.79,1.461" transform="translate(1054 -33)" fill="none" stroke="#707070" stroke-width="2"/>
    <path id="Path_29" data-name="Path 29" d="M152.628,306.717s7.3-9.25,7.546-3.895,5.112,1.461,5.112,1.461,9.25-6.086,7.059-1.461,7.79,1.461,7.79,1.461" transform="translate(63 -33)" fill="none" stroke="#707070" stroke-width="2"/>
    <path id="Path_115" data-name="Path 115" d="M152.628,306.717s7.3-9.25,7.546-3.895,5.112,1.461,5.112,1.461,9.25-6.086,7.059-1.461,7.79,1.461,7.79,1.461" transform="translate(330 -33)" fill="none" stroke="#707070" stroke-width="2"/>
    <path id="Path_175" data-name="Path 175" d="M152.628,306.717s7.3-9.25,7.546-3.895,5.112,1.461,5.112,1.461,9.25-6.086,7.059-1.461,7.79,1.461,7.79,1.461" transform="translate(659 -33)" fill="none" stroke="#707070" stroke-width="2"/>
    <path id="Path_235" data-name="Path 235" d="M152.628,306.717s7.3-9.25,7.546-3.895,5.112,1.461,5.112,1.461,9.25-6.086,7.059-1.461,7.79,1.461,7.79,1.461" transform="translate(1054 -33)" fill="none" stroke="#707070" stroke-width="2"/>
    <path id="Path_58" data-name="Path 58" d="M152.628,306.717s7.3-9.25,7.546-3.895,5.112,1.461,5.112,1.461,9.25-6.086,7.059-1.461,7.79,1.461,7.79,1.461" transform="translate(63 -33)" fill="none" stroke="#707070" stroke-width="2"/>
    <path id="Path_116" data-name="Path 116" d="M152.628,306.717s7.3-9.25,7.546-3.895,5.112,1.461,5.112,1.461,9.25-6.086,7.059-1.461,7.79,1.461,7.79,1.461" transform="translate(330 -33)" fill="none" stroke="#707070" stroke-width="2"/>
    <path id="Path_176" data-name="Path 176" d="M152.628,306.717s7.3-9.25,7.546-3.895,5.112,1.461,5.112,1.461,9.25-6.086,7.059-1.461,7.79,1.461,7.79,1.461" transform="translate(659 -33)" fill="none" stroke="#707070" stroke-width="2"/>
    <path id="Path_236" data-name="Path 236" d="M152.628,306.717s7.3-9.25,7.546-3.895,5.112,1.461,5.112,1.461,9.25-6.086,7.059-1.461,7.79,1.461,7.79,1.461" transform="translate(1054 -33)" fill="none" stroke="#707070" stroke-width="2"/>
    <path id="Path_10" data-name="Path 10" d="M152.628,306.717s7.3-9.25,7.546-3.895,5.112,1.461,5.112,1.461,9.25-6.086,7.059-1.461,7.79,1.461,7.79,1.461" transform="translate(63 -23)" fill="none" stroke="#707070" stroke-width="2"/>
    <path id="Path_117" data-name="Path 117" d="M152.628,306.717s7.3-9.25,7.546-3.895,5.112,1.461,5.112,1.461,9.25-6.086,7.059-1.461,7.79,1.461,7.79,1.461" transform="translate(330 -23)" fill="none" stroke="#707070" stroke-width="2"/>
    <path id="Path_177" data-name="Path 177" d="M152.628,306.717s7.3-9.25,7.546-3.895,5.112,1.461,5.112,1.461,9.25-6.086,7.059-1.461,7.79,1.461,7.79,1.461" transform="translate(659 -23)" fill="none" stroke="#707070" stroke-width="2"/>
    <path id="Path_237" data-name="Path 237" d="M152.628,306.717s7.3-9.25,7.546-3.895,5.112,1.461,5.112,1.461,9.25-6.086,7.059-1.461,7.79,1.461,7.79,1.461" transform="translate(1054 -23)" fill="none" stroke="#707070" stroke-width="2"/>
    <path id="Path_59" data-name="Path 59" d="M152.628,306.717s7.3-9.25,7.546-3.895,5.112,1.461,5.112,1.461,9.25-6.086,7.059-1.461,7.79,1.461,7.79,1.461" transform="translate(63 -23)" fill="none" stroke="#707070" stroke-width="2"/>
    <path id="Path_118" data-name="Path 118" d="M152.628,306.717s7.3-9.25,7.546-3.895,5.112,1.461,5.112,1.461,9.25-6.086,7.059-1.461,7.79,1.461,7.79,1.461" transform="translate(330 -23)" fill="none" stroke="#707070" stroke-width="2"/>
    <path id="Path_178" data-name="Path 178" d="M152.628,306.717s7.3-9.25,7.546-3.895,5.112,1.461,5.112,1.461,9.25-6.086,7.059-1.461,7.79,1.461,7.79,1.461" transform="translate(659 -23)" fill="none" stroke="#707070" stroke-width="2"/>
    <path id="Path_238" data-name="Path 238" d="M152.628,306.717s7.3-9.25,7.546-3.895,5.112,1.461,5.112,1.461,9.25-6.086,7.059-1.461,7.79,1.461,7.79,1.461" transform="translate(1054 -23)" fill="none" stroke="#707070" stroke-width="2"/>
    <path id="Path_30" data-name="Path 30" d="M152.628,306.717s7.3-9.25,7.546-3.895,5.112,1.461,5.112,1.461,9.25-6.086,7.059-1.461,7.79,1.461,7.79,1.461" transform="translate(63 -23)" fill="none" stroke="#707070" stroke-width="2"/>
    <path id="Path_119" data-name="Path 119" d="M152.628,306.717s7.3-9.25,7.546-3.895,5.112,1.461,5.112,1.461,9.25-6.086,7.059-1.461,7.79,1.461,7.79,1.461" transform="translate(330 -23)" fill="none" stroke="#707070" stroke-width="2"/>
    <path id="Path_179" data-name="Path 179" d="M152.628,306.717s7.3-9.25,7.546-3.895,5.112,1.461,5.112,1.461,9.25-6.086,7.059-1.461,7.79,1.461,7.79,1.461" transform="translate(659 -23)" fill="none" stroke="#707070" stroke-width="2"/>
    <path id="Path_239" data-name="Path 239" d="M152.628,306.717s7.3-9.25,7.546-3.895,5.112,1.461,5.112,1.461,9.25-6.086,7.059-1.461,7.79,1.461,7.79,1.461" transform="translate(1054 -23)" fill="none" stroke="#707070" stroke-width="2"/>
    <path id="Path_60" data-name="Path 60" d="M152.628,306.717s7.3-9.25,7.546-3.895,5.112,1.461,5.112,1.461,9.25-6.086,7.059-1.461,7.79,1.461,7.79,1.461" transform="translate(63 -23)" fill="none" stroke="#707070" stroke-width="2"/>
    <path id="Path_120" data-name="Path 120" d="M152.628,306.717s7.3-9.25,7.546-3.895,5.112,1.461,5.112,1.461,9.25-6.086,7.059-1.461,7.79,1.461,7.79,1.461" transform="translate(330 -23)" fill="none" stroke="#707070" stroke-width="2"/>
    <path id="Path_180" data-name="Path 180" d="M152.628,306.717s7.3-9.25,7.546-3.895,5.112,1.461,5.112,1.461,9.25-6.086,7.059-1.461,7.79,1.461,7.79,1.461" transform="translate(659 -23)" fill="none" stroke="#707070" stroke-width="2"/>
    <path id="Path_240" data-name="Path 240" d="M152.628,306.717s7.3-9.25,7.546-3.895,5.112,1.461,5.112,1.461,9.25-6.086,7.059-1.461,7.79,1.461,7.79,1.461" transform="translate(1054 -23)" fill="none" stroke="#707070" stroke-width="2"/>
    <g id="Rectangle_9" data-name="Rectangle 9" transform="translate(132 322)" fill="#fff" stroke="#707070" stroke-width="2">
      <rect width="48" height="71" stroke="none"/>
      <rect x="1" y="1" width="46" height="69" fill="none"/>
    </g>
    <g id="Rectangle_24" data-name="Rectangle 24" transform="translate(399 322)" fill="#fff" stroke="#707070" stroke-width="2">
      <rect width="48" height="71" stroke="none"/>
      <rect x="1" y="1" width="46" height="69" fill="none"/>
    </g>
    <g id="Rectangle_37" data-name="Rectangle 37" transform="translate(728 322)" fill="#fff" stroke="#707070" stroke-width="2">
      <rect width="48" height="71" stroke="none"/>
      <rect x="1" y="1" width="46" height="69" fill="none"/>
    </g>
    <g id="Rectangle_50" data-name="Rectangle 50" transform="translate(1123 322)" fill="#fff" stroke="#707070" stroke-width="2">
      <rect width="48" height="71" stroke="none"/>
      <rect x="1" y="1" width="46" height="69" fill="none"/>
    </g>
    <g id="Rectangle_15" data-name="Rectangle 15" transform="translate(132 322)" fill="#fff" stroke="#707070" stroke-width="2">
      <rect width="48" height="71" stroke="none"/>
      <rect x="1" y="1" width="46" height="69" fill="none"/>
    </g>
    <g id="Rectangle_25" data-name="Rectangle 25" transform="translate(399 322)" fill="#fff" stroke="#707070" stroke-width="2">
      <rect width="48" height="71" stroke="none"/>
      <rect x="1" y="1" width="46" height="69" fill="none"/>
    </g>
    <g id="Rectangle_38" data-name="Rectangle 38" transform="translate(728 322)" fill="#fff" stroke="#707070" stroke-width="2">
      <rect width="48" height="71" stroke="none"/>
      <rect x="1" y="1" width="46" height="69" fill="none"/>
    </g>
    <g id="Rectangle_51" data-name="Rectangle 51" transform="translate(1123 322)" fill="#fff" stroke="#707070" stroke-width="2">
      <rect width="48" height="71" stroke="none"/>
      <rect x="1" y="1" width="46" height="69" fill="none"/>
    </g>
    <g id="Rectangle_11" data-name="Rectangle 11" transform="translate(132 322)" fill="#fff" stroke="#707070" stroke-width="2">
      <rect width="48" height="71" stroke="none"/>
      <rect x="1" y="1" width="46" height="69" fill="none"/>
    </g>
    <g id="Rectangle_26" data-name="Rectangle 26" transform="translate(399 322)" fill="#fff" stroke="#707070" stroke-width="2">
      <rect width="48" height="71" stroke="none"/>
      <rect x="1" y="1" width="46" height="69" fill="none"/>
    </g>
    <g id="Rectangle_39" data-name="Rectangle 39" transform="translate(728 322)" fill="#fff" stroke="#707070" stroke-width="2">
      <rect width="48" height="71" stroke="none"/>
      <rect x="1" y="1" width="46" height="69" fill="none"/>
    </g>
    <g id="Rectangle_52" data-name="Rectangle 52" transform="translate(1123 322)" fill="#fff" stroke="#707070" stroke-width="2">
      <rect width="48" height="71" stroke="none"/>
      <rect x="1" y="1" width="46" height="69" fill="none"/>
    </g>
    <g id="Rectangle_16" data-name="Rectangle 16" transform="translate(132 322)" fill="#fff" stroke="#707070" stroke-width="2">
      <rect width="48" height="71" stroke="none"/>
      <rect x="1" y="1" width="46" height="69" fill="none"/>
    </g>
    <g id="Rectangle_27" data-name="Rectangle 27" transform="translate(399 322)" fill="#fff" stroke="#707070" stroke-width="2">
      <rect width="48" height="71" stroke="none"/>
      <rect x="1" y="1" width="46" height="69" fill="none"/>
    </g>
    <g id="Rectangle_40" data-name="Rectangle 40" transform="translate(728 322)" fill="#fff" stroke="#707070" stroke-width="2">
      <rect width="48" height="71" stroke="none"/>
      <rect x="1" y="1" width="46" height="69" fill="none"/>
    </g>
    <g id="Rectangle_53" data-name="Rectangle 53" transform="translate(1123 322)" fill="#fff" stroke="#707070" stroke-width="2">
      <rect width="48" height="71" stroke="none"/>
      <rect x="1" y="1" width="46" height="69" fill="none"/>
    </g>
    <line id="Line_3" data-name="Line 3" y1="12" x2="12" transform="translate(132.5 322.5)" fill="none" stroke="#707070" stroke-width="2"/>
    <line id="Line_17" data-name="Line 17" y1="12" x2="12" transform="translate(399.5 322.5)" fill="none" stroke="#707070" stroke-width="2"/>
    <line id="Line_29" data-name="Line 29" y1="12" x2="12" transform="translate(728.5 322.5)" fill="none" stroke="#707070" stroke-width="2"/>
    <line id="Line_41" data-name="Line 41" y1="12" x2="12" transform="translate(1123.5 322.5)" fill="none" stroke="#707070" stroke-width="2"/>
    <line id="Line_9" data-name="Line 9" y1="12" x2="12" transform="translate(132.5 322.5)" fill="none" stroke="#707070" stroke-width="2"/>
    <line id="Line_18" data-name="Line 18" y1="12" x2="12" transform="translate(399.5 322.5)" fill="none" stroke="#707070" stroke-width="2"/>
    <line id="Line_30" data-name="Line 30" y1="12" x2="12" transform="translate(728.5 322.5)" fill="none" stroke="#707070" stroke-width="2"/>
    <line id="Line_42" data-name="Line 42" y1="12" x2="12" transform="translate(1123.5 322.5)" fill="none" stroke="#707070" stroke-width="2"/>
    <line id="Line_5" data-name="Line 5" y1="12" x2="12" transform="translate(132.5 322.5)" fill="none" stroke="#707070" stroke-width="2"/>
    <line id="Line_19" data-name="Line 19" y1="12" x2="12" transform="translate(399.5 322.5)" fill="none" stroke="#707070" stroke-width="2"/>
    <line id="Line_31" data-name="Line 31" y1="12" x2="12" transform="translate(728.5 322.5)" fill="none" stroke="#707070" stroke-width="2"/>
    <line id="Line_43" data-name="Line 43" y1="12" x2="12" transform="translate(1123.5 322.5)" fill="none" stroke="#707070" stroke-width="2"/>
    <line id="Line_10" data-name="Line 10" y1="12" x2="12" transform="translate(132.5 322.5)" fill="none" stroke="#707070" stroke-width="2"/>
    <line id="Line_20" data-name="Line 20" y1="12" x2="12" transform="translate(399.5 322.5)" fill="none" stroke="#707070" stroke-width="2"/>
    <line id="Line_32" data-name="Line 32" y1="12" x2="12" transform="translate(728.5 322.5)" fill="none" stroke="#707070" stroke-width="2"/>
    <line id="Line_44" data-name="Line 44" y1="12" x2="12" transform="translate(1123.5 322.5)" fill="none" stroke="#707070" stroke-width="2"/>
    <path id="Path_11" data-name="Path 11" d="M152.628,306.717s7.3-9.25,7.546-3.895,5.112,1.461,5.112,1.461,9.25-6.086,7.059-1.461,7.79,1.461,7.79,1.461" transform="translate(-10 30)" fill="none" stroke="#707070" stroke-width="2"/>
    <path id="Path_81" data-name="Path 81" d="M152.628,306.717s7.3-9.25,7.546-3.895,5.112,1.461,5.112,1.461,9.25-6.086,7.059-1.461,7.79,1.461,7.79,1.461" transform="translate(257 30)" fill="none" stroke="#707070" stroke-width="2"/>
    <path id="Path_141" data-name="Path 141" d="M152.628,306.717s7.3-9.25,7.546-3.895,5.112,1.461,5.112,1.461,9.25-6.086,7.059-1.461,7.79,1.461,7.79,1.461" transform="translate(586 30)" fill="none" stroke="#707070" stroke-width="2"/>
    <path id="Path_201" data-name="Path 201" d="M152.628,306.717s7.3-9.25,7.546-3.895,5.112,1.461,5.112,1.461,9.25-6.086,7.059-1.461,7.79,1.461,7.79,1.461" transform="translate(981 30)" fill="none" stroke="#707070" stroke-width="2"/>
    <path id="Path_41" data-name="Path 41" d="M152.628,306.717s7.3-9.25,7.546-3.895,5.112,1.461,5.112,1.461,9.25-6.086,7.059-1.461,7.79,1.461,7.79,1.461" transform="translate(-10 30)" fill="none" stroke="#707070" stroke-width="2"/>
    <path id="Path_82" data-name="Path 82" d="M152.628,306.717s7.3-9.25,7.546-3.895,5.112,1.461,5.112,1.461,9.25-6.086,7.059-1.461,7.79,1.461,7.79,1.461" transform="translate(257 30)" fill="none" stroke="#707070" stroke-width="2"/>
    <path id="Path_142" data-name="Path 142" d="M152.628,306.717s7.3-9.25,7.546-3.895,5.112,1.461,5.112,1.461,9.25-6.086,7.059-1.461,7.79,1.461,7.79,1.461" transform="translate(586 30)" fill="none" stroke="#707070" stroke-width="2"/>
    <path id="Path_202" data-name="Path 202" d="M152.628,306.717s7.3-9.25,7.546-3.895,5.112,1.461,5.112,1.461,9.25-6.086,7.059-1.461,7.79,1.461,7.79,1.461" transform="translate(981 30)" fill="none" stroke="#707070" stroke-width="2"/>
    <path id="Path_21" data-name="Path 21" d="M152.628,306.717s7.3-9.25,7.546-3.895,5.112,1.461,5.112,1.461,9.25-6.086,7.059-1.461,7.79,1.461,7.79,1.461" transform="translate(-10 30)" fill="none" stroke="#707070" stroke-width="2"/>
    <path id="Path_83" data-name="Path 83" d="M152.628,306.717s7.3-9.25,7.546-3.895,5.112,1.461,5.112,1.461,9.25-6.086,7.059-1.461,7.79,1.461,7.79,1.461" transform="translate(257 30)" fill="none" stroke="#707070" stroke-width="2"/>
    <path id="Path_143" data-name="Path 143" d="M152.628,306.717s7.3-9.25,7.546-3.895,5.112,1.461,5.112,1.461,9.25-6.086,7.059-1.461,7.79,1.461,7.79,1.461" transform="translate(586 30)" fill="none" stroke="#707070" stroke-width="2"/>
    <path id="Path_203" data-name="Path 203" d="M152.628,306.717s7.3-9.25,7.546-3.895,5.112,1.461,5.112,1.461,9.25-6.086,7.059-1.461,7.79,1.461,7.79,1.461" transform="translate(981 30)" fill="none" stroke="#707070" stroke-width="2"/>
    <path id="Path_42" data-name="Path 42" d="M152.628,306.717s7.3-9.25,7.546-3.895,5.112,1.461,5.112,1.461,9.25-6.086,7.059-1.461,7.79,1.461,7.79,1.461" transform="translate(-10 30)" fill="none" stroke="#707070" stroke-width="2"/>
    <path id="Path_84" data-name="Path 84" d="M152.628,306.717s7.3-9.25,7.546-3.895,5.112,1.461,5.112,1.461,9.25-6.086,7.059-1.461,7.79,1.461,7.79,1.461" transform="translate(257 30)" fill="none" stroke="#707070" stroke-width="2"/>
    <path id="Path_144" data-name="Path 144" d="M152.628,306.717s7.3-9.25,7.546-3.895,5.112,1.461,5.112,1.461,9.25-6.086,7.059-1.461,7.79,1.461,7.79,1.461" transform="translate(586 30)" fill="none" stroke="#707070" stroke-width="2"/>
    <path id="Path_204" data-name="Path 204" d="M152.628,306.717s7.3-9.25,7.546-3.895,5.112,1.461,5.112,1.461,9.25-6.086,7.059-1.461,7.79,1.461,7.79,1.461" transform="translate(981 30)" fill="none" stroke="#707070" stroke-width="2"/>
    <path id="Path_12" data-name="Path 12" d="M152.628,306.717s7.3-9.25,7.546-3.895,5.112,1.461,5.112,1.461,9.25-6.086,7.059-1.461,7.79,1.461,7.79,1.461" transform="translate(-10 40)" fill="none" stroke="#707070" stroke-width="2"/>
    <path id="Path_85" data-name="Path 85" d="M152.628,306.717s7.3-9.25,7.546-3.895,5.112,1.461,5.112,1.461,9.25-6.086,7.059-1.461,7.79,1.461,7.79,1.461" transform="translate(257 40)" fill="none" stroke="#707070" stroke-width="2"/>
    <path id="Path_145" data-name="Path 145" d="M152.628,306.717s7.3-9.25,7.546-3.895,5.112,1.461,5.112,1.461,9.25-6.086,7.059-1.461,7.79,1.461,7.79,1.461" transform="translate(586 40)" fill="none" stroke="#707070" stroke-width="2"/>
    <path id="Path_205" data-name="Path 205" d="M152.628,306.717s7.3-9.25,7.546-3.895,5.112,1.461,5.112,1.461,9.25-6.086,7.059-1.461,7.79,1.461,7.79,1.461" transform="translate(981 40)" fill="none" stroke="#707070" stroke-width="2"/>
    <path id="Path_43" data-name="Path 43" d="M152.628,306.717s7.3-9.25,7.546-3.895,5.112,1.461,5.112,1.461,9.25-6.086,7.059-1.461,7.79,1.461,7.79,1.461" transform="translate(-10 40)" fill="none" stroke="#707070" stroke-width="2"/>
    <path id="Path_86" data-name="Path 86" d="M152.628,306.717s7.3-9.25,7.546-3.895,5.112,1.461,5.112,1.461,9.25-6.086,7.059-1.461,7.79,1.461,7.79,1.461" transform="translate(257 40)" fill="none" stroke="#707070" stroke-width="2"/>
    <path id="Path_146" data-name="Path 146" d="M152.628,306.717s7.3-9.25,7.546-3.895,5.112,1.461,5.112,1.461,9.25-6.086,7.059-1.461,7.79,1.461,7.79,1.461" transform="translate(586 40)" fill="none" stroke="#707070" stroke-width="2"/>
    <path id="Path_206" data-name="Path 206" d="M152.628,306.717s7.3-9.25,7.546-3.895,5.112,1.461,5.112,1.461,9.25-6.086,7.059-1.461,7.79,1.461,7.79,1.461" transform="translate(981 40)" fill="none" stroke="#707070" stroke-width="2"/>
    <path id="Path_22" data-name="Path 22" d="M152.628,306.717s7.3-9.25,7.546-3.895,5.112,1.461,5.112,1.461,9.25-6.086,7.059-1.461,7.79,1.461,7.79,1.461" transform="translate(-10 40)" fill="none" stroke="#707070" stroke-width="2"/>
    <path id="Path_87" data-name="Path 87" d="M152.628,306.717s7.3-9.25,7.546-3.895,5.112,1.461,5.112,1.461,9.25-6.086,7.059-1.461,7.79,1.461,7.79,1.461" transform="translate(257 40)" fill="none" stroke="#707070" stroke-width="2"/>
    <path id="Path_147" data-name="Path 147" d="M152.628,306.717s7.3-9.25,7.546-3.895,5.112,1.461,5.112,1.461,9.25-6.086,7.059-1.461,7.79,1.461,7.79,1.461" transform="translate(586 40)" fill="none" stroke="#707070" stroke-width="2"/>
    <path id="Path_207" data-name="Path 207" d="M152.628,306.717s7.3-9.25,7.546-3.895,5.112,1.461,5.112,1.461,9.25-6.086,7.059-1.461,7.79,1.461,7.79,1.461" transform="translate(981 40)" fill="none" stroke="#707070" stroke-width="2"/>
    <path id="Path_44" data-name="Path 44" d="M152.628,306.717s7.3-9.25,7.546-3.895,5.112,1.461,5.112,1.461,9.25-6.086,7.059-1.461,7.79,1.461,7.79,1.461" transform="translate(-10 40)" fill="none" stroke="#707070" stroke-width="2"/>
    <path id="Path_88" data-name="Path 88" d="M152.628,306.717s7.3-9.25,7.546-3.895,5.112,1.461,5.112,1.461,9.25-6.086,7.059-1.461,7.79,1.461,7.79,1.461" transform="translate(257 40)" fill="none" stroke="#707070" stroke-width="2"/>
    <path id="Path_148" data-name="Path 148" d="M152.628,306.717s7.3-9.25,7.546-3.895,5.112,1.461,5.112,1.461,9.25-6.086,7.059-1.461,7.79,1.461,7.79,1.461" transform="translate(586 40)" fill="none" stroke="#707070" stroke-width="2"/>
    <path id="Path_208" data-name="Path 208" d="M152.628,306.717s7.3-9.25,7.546-3.895,5.112,1.461,5.112,1.461,9.25-6.086,7.059-1.461,7.79,1.461,7.79,1.461" transform="translate(981 40)" fill="none" stroke="#707070" stroke-width="2"/>
    <path id="Path_13" data-name="Path 13" d="M152.628,306.717s7.3-9.25,7.546-3.895,5.112,1.461,5.112,1.461,9.25-6.086,7.059-1.461,7.79,1.461,7.79,1.461" transform="translate(-10 50)" fill="none" stroke="#707070" stroke-width="2"/>
    <path id="Path_89" data-name="Path 89" d="M152.628,306.717s7.3-9.25,7.546-3.895,5.112,1.461,5.112,1.461,9.25-6.086,7.059-1.461,7.79,1.461,7.79,1.461" transform="translate(257 50)" fill="none" stroke="#707070" stroke-width="2"/>
    <path id="Path_149" data-name="Path 149" d="M152.628,306.717s7.3-9.25,7.546-3.895,5.112,1.461,5.112,1.461,9.25-6.086,7.059-1.461,7.79,1.461,7.79,1.461" transform="translate(586 50)" fill="none" stroke="#707070" stroke-width="2"/>
    <path id="Path_209" data-name="Path 209" d="M152.628,306.717s7.3-9.25,7.546-3.895,5.112,1.461,5.112,1.461,9.25-6.086,7.059-1.461,7.79,1.461,7.79,1.461" transform="translate(981 50)" fill="none" stroke="#707070" stroke-width="2"/>
    <path id="Path_45" data-name="Path 45" d="M152.628,306.717s7.3-9.25,7.546-3.895,5.112,1.461,5.112,1.461,9.25-6.086,7.059-1.461,7.79,1.461,7.79,1.461" transform="translate(-10 50)" fill="none" stroke="#707070" stroke-width="2"/>
    <path id="Path_90" data-name="Path 90" d="M152.628,306.717s7.3-9.25,7.546-3.895,5.112,1.461,5.112,1.461,9.25-6.086,7.059-1.461,7.79,1.461,7.79,1.461" transform="translate(257 50)" fill="none" stroke="#707070" stroke-width="2"/>
    <path id="Path_150" data-name="Path 150" d="M152.628,306.717s7.3-9.25,7.546-3.895,5.112,1.461,5.112,1.461,9.25-6.086,7.059-1.461,7.79,1.461,7.79,1.461" transform="translate(586 50)" fill="none" stroke="#707070" stroke-width="2"/>
    <path id="Path_210" data-name="Path 210" d="M152.628,306.717s7.3-9.25,7.546-3.895,5.112,1.461,5.112,1.461,9.25-6.086,7.059-1.461,7.79,1.461,7.79,1.461" transform="translate(981 50)" fill="none" stroke="#707070" stroke-width="2"/>
    <path id="Path_23" data-name="Path 23" d="M152.628,306.717s7.3-9.25,7.546-3.895,5.112,1.461,5.112,1.461,9.25-6.086,7.059-1.461,7.79,1.461,7.79,1.461" transform="translate(-10 50)" fill="none" stroke="#707070" stroke-width="2"/>
    <path id="Path_91" data-name="Path 91" d="M152.628,306.717s7.3-9.25,7.546-3.895,5.112,1.461,5.112,1.461,9.25-6.086,7.059-1.461,7.79,1.461,7.79,1.461" transform="translate(257 50)" fill="none" stroke="#707070" stroke-width="2"/>
    <path id="Path_151" data-name="Path 151" d="M152.628,306.717s7.3-9.25,7.546-3.895,5.112,1.461,5.112,1.461,9.25-6.086,7.059-1.461,7.79,1.461,7.79,1.461" transform="translate(586 50)" fill="none" stroke="#707070" stroke-width="2"/>
    <path id="Path_211" data-name="Path 211" d="M152.628,306.717s7.3-9.25,7.546-3.895,5.112,1.461,5.112,1.461,9.25-6.086,7.059-1.461,7.79,1.461,7.79,1.461" transform="translate(981 50)" fill="none" stroke="#707070" stroke-width="2"/>
    <path id="Path_46" data-name="Path 46" d="M152.628,306.717s7.3-9.25,7.546-3.895,5.112,1.461,5.112,1.461,9.25-6.086,7.059-1.461,7.79,1.461,7.79,1.461" transform="translate(-10 50)" fill="none" stroke="#707070" stroke-width="2"/>
    <path id="Path_92" data-name="Path 92" d="M152.628,306.717s7.3-9.25,7.546-3.895,5.112,1.461,5.112,1.461,9.25-6.086,7.059-1.461,7.79,1.461,7.79,1.461" transform="translate(257 50)" fill="none" stroke="#707070" stroke-width="2"/>
    <path id="Path_152" data-name="Path 152" d="M152.628,306.717s7.3-9.25,7.546-3.895,5.112,1.461,5.112,1.461,9.25-6.086,7.059-1.461,7.79,1.461,7.79,1.461" transform="translate(586 50)" fill="none" stroke="#707070" stroke-width="2"/>
    <path id="Path_212" data-name="Path 212" d="M152.628,306.717s7.3-9.25,7.546-3.895,5.112,1.461,5.112,1.461,9.25-6.086,7.059-1.461,7.79,1.461,7.79,1.461" transform="translate(981 50)" fill="none" stroke="#707070" stroke-width="2"/>
    <path id="Path_14" data-name="Path 14" d="M152.628,306.717s7.3-9.25,7.546-3.895,5.112,1.461,5.112,1.461,9.25-6.086,7.059-1.461,7.79,1.461,7.79,1.461" transform="translate(-10 60)" fill="none" stroke="#707070" stroke-width="2"/>
    <path id="Path_93" data-name="Path 93" d="M152.628,306.717s7.3-9.25,7.546-3.895,5.112,1.461,5.112,1.461,9.25-6.086,7.059-1.461,7.79,1.461,7.79,1.461" transform="translate(257 60)" fill="none" stroke="#707070" stroke-width="2"/>
    <path id="Path_153" data-name="Path 153" d="M152.628,306.717s7.3-9.25,7.546-3.895,5.112,1.461,5.112,1.461,9.25-6.086,7.059-1.461,7.79,1.461,7.79,1.461" transform="translate(586 60)" fill="none" stroke="#707070" stroke-width="2"/>
    <path id="Path_213" data-name="Path 213" d="M152.628,306.717s7.3-9.25,7.546-3.895,5.112,1.461,5.112,1.461,9.25-6.086,7.059-1.461,7.79,1.461,7.79,1.461" transform="translate(981 60)" fill="none" stroke="#707070" stroke-width="2"/>
    <path id="Path_47" data-name="Path 47" d="M152.628,306.717s7.3-9.25,7.546-3.895,5.112,1.461,5.112,1.461,9.25-6.086,7.059-1.461,7.79,1.461,7.79,1.461" transform="translate(-10 60)" fill="none" stroke="#707070" stroke-width="2"/>
    <path id="Path_94" data-name="Path 94" d="M152.628,306.717s7.3-9.25,7.546-3.895,5.112,1.461,5.112,1.461,9.25-6.086,7.059-1.461,7.79,1.461,7.79,1.461" transform="translate(257 60)" fill="none" stroke="#707070" stroke-width="2"/>
    <path id="Path_154" data-name="Path 154" d="M152.628,306.717s7.3-9.25,7.546-3.895,5.112,1.461,5.112,1.461,9.25-6.086,7.059-1.461,7.79,1.461,7.79,1.461" transform="translate(586 60)" fill="none" stroke="#707070" stroke-width="2"/>
    <path id="Path_214" data-name="Path 214" d="M152.628,306.717s7.3-9.25,7.546-3.895,5.112,1.461,5.112,1.461,9.25-6.086,7.059-1.461,7.79,1.461,7.79,1.461" transform="translate(981 60)" fill="none" stroke="#707070" stroke-width="2"/>
    <path id="Path_24" data-name="Path 24" d="M152.628,306.717s7.3-9.25,7.546-3.895,5.112,1.461,5.112,1.461,9.25-6.086,7.059-1.461,7.79,1.461,7.79,1.461" transform="translate(-10 60)" fill="none" stroke="#707070" stroke-width="2"/>
    <path id="Path_95" data-name="Path 95" d="M152.628,306.717s7.3-9.25,7.546-3.895,5.112,1.461,5.112,1.461,9.25-6.086,7.059-1.461,7.79,1.461,7.79,1.461" transform="translate(257 60)" fill="none" stroke="#707070" stroke-width="2"/>
    <path id="Path_155" data-name="Path 155" d="M152.628,306.717s7.3-9.25,7.546-3.895,5.112,1.461,5.112,1.461,9.25-6.086,7.059-1.461,7.79,1.461,7.79,1.461" transform="translate(586 60)" fill="none" stroke="#707070" stroke-width="2"/>
    <path id="Path_215" data-name="Path 215" d="M152.628,306.717s7.3-9.25,7.546-3.895,5.112,1.461,5.112,1.461,9.25-6.086,7.059-1.461,7.79,1.461,7.79,1.461" transform="translate(981 60)" fill="none" stroke="#707070" stroke-width="2"/>
    <path id="Path_48" data-name="Path 48" d="M152.628,306.717s7.3-9.25,7.546-3.895,5.112,1.461,5.112,1.461,9.25-6.086,7.059-1.461,7.79,1.461,7.79,1.461" transform="translate(-10 60)" fill="none" stroke="#707070" stroke-width="2"/>
    <path id="Path_96" data-name="Path 96" d="M152.628,306.717s7.3-9.25,7.546-3.895,5.112,1.461,5.112,1.461,9.25-6.086,7.059-1.461,7.79,1.461,7.79,1.461" transform="translate(257 60)" fill="none" stroke="#707070" stroke-width="2"/>
    <path id="Path_156" data-name="Path 156" d="M152.628,306.717s7.3-9.25,7.546-3.895,5.112,1.461,5.112,1.461,9.25-6.086,7.059-1.461,7.79,1.461,7.79,1.461" transform="translate(586 60)" fill="none" stroke="#707070" stroke-width="2"/>
    <path id="Path_216" data-name="Path 216" d="M152.628,306.717s7.3-9.25,7.546-3.895,5.112,1.461,5.112,1.461,9.25-6.086,7.059-1.461,7.79,1.461,7.79,1.461" transform="translate(981 60)" fill="none" stroke="#707070" stroke-width="2"/>
    <path id="Path_15" data-name="Path 15" d="M152.628,306.717s7.3-9.25,7.546-3.895,5.112,1.461,5.112,1.461,9.25-6.086,7.059-1.461,7.79,1.461,7.79,1.461" transform="translate(-10 70)" fill="none" stroke="#707070" stroke-width="2"/>
    <path id="Path_97" data-name="Path 97" d="M152.628,306.717s7.3-9.25,7.546-3.895,5.112,1.461,5.112,1.461,9.25-6.086,7.059-1.461,7.79,1.461,7.79,1.461" transform="translate(257 70)" fill="none" stroke="#707070" stroke-width="2"/>
    <path id="Path_157" data-name="Path 157" d="M152.628,306.717s7.3-9.25,7.546-3.895,5.112,1.461,5.112,1.461,9.25-6.086,7.059-1.461,7.79,1.461,7.79,1.461" transform="translate(586 70)" fill="none" stroke="#707070" stroke-width="2"/>
    <path id="Path_217" data-name="Path 217" d="M152.628,306.717s7.3-9.25,7.546-3.895,5.112,1.461,5.112,1.461,9.25-6.086,7.059-1.461,7.79,1.461,7.79,1.461" transform="translate(981 70)" fill="none" stroke="#707070" stroke-width="2"/>
    <path id="Path_49" data-name="Path 49" d="M152.628,306.717s7.3-9.25,7.546-3.895,5.112,1.461,5.112,1.461,9.25-6.086,7.059-1.461,7.79,1.461,7.79,1.461" transform="translate(-10 70)" fill="none" stroke="#707070" stroke-width="2"/>
    <path id="Path_98" data-name="Path 98" d="M152.628,306.717s7.3-9.25,7.546-3.895,5.112,1.461,5.112,1.461,9.25-6.086,7.059-1.461,7.79,1.461,7.79,1.461" transform="translate(257 70)" fill="none" stroke="#707070" stroke-width="2"/>
    <path id="Path_158" data-name="Path 158" d="M152.628,306.717s7.3-9.25,7.546-3.895,5.112,1.461,5.112,1.461,9.25-6.086,7.059-1.461,7.79,1.461,7.79,1.461" transform="translate(586 70)" fill="none" stroke="#707070" stroke-width="2"/>
    <path id="Path_218" data-name="Path 218" d="M152.628,306.717s7.3-9.25,7.546-3.895,5.112,1.461,5.112,1.461,9.25-6.086,7.059-1.461,7.79,1.461,7.79,1.461" transform="translate(981 70)" fill="none" stroke="#707070" stroke-width="2"/>
    <path id="Path_25" data-name="Path 25" d="M152.628,306.717s7.3-9.25,7.546-3.895,5.112,1.461,5.112,1.461,9.25-6.086,7.059-1.461,7.79,1.461,7.79,1.461" transform="translate(-10 70)" fill="none" stroke="#707070" stroke-width="2"/>
    <path id="Path_99" data-name="Path 99" d="M152.628,306.717s7.3-9.25,7.546-3.895,5.112,1.461,5.112,1.461,9.25-6.086,7.059-1.461,7.79,1.461,7.79,1.461" transform="translate(257 70)" fill="none" stroke="#707070" stroke-width="2"/>
    <path id="Path_159" data-name="Path 159" d="M152.628,306.717s7.3-9.25,7.546-3.895,5.112,1.461,5.112,1.461,9.25-6.086,7.059-1.461,7.79,1.461,7.79,1.461" transform="translate(586 70)" fill="none" stroke="#707070" stroke-width="2"/>
    <path id="Path_219" data-name="Path 219" d="M152.628,306.717s7.3-9.25,7.546-3.895,5.112,1.461,5.112,1.461,9.25-6.086,7.059-1.461,7.79,1.461,7.79,1.461" transform="translate(981 70)" fill="none" stroke="#707070" stroke-width="2"/>
    <path id="Path_50" data-name="Path 50" d="M152.628,306.717s7.3-9.25,7.546-3.895,5.112,1.461,5.112,1.461,9.25-6.086,7.059-1.461,7.79,1.461,7.79,1.461" transform="translate(-10 70)" fill="none" stroke="#707070" stroke-width="2"/>
    <path id="Path_100" data-name="Path 100" d="M152.628,306.717s7.3-9.25,7.546-3.895,5.112,1.461,5.112,1.461,9.25-6.086,7.059-1.461,7.79,1.461,7.79,1.461" transform="translate(257 70)" fill="none" stroke="#707070" stroke-width="2"/>
    <path id="Path_160" data-name="Path 160" d="M152.628,306.717s7.3-9.25,7.546-3.895,5.112,1.461,5.112,1.461,9.25-6.086,7.059-1.461,7.79,1.461,7.79,1.461" transform="translate(586 70)" fill="none" stroke="#707070" stroke-width="2"/>
    <path id="Path_220" data-name="Path 220" d="M152.628,306.717s7.3-9.25,7.546-3.895,5.112,1.461,5.112,1.461,9.25-6.086,7.059-1.461,7.79,1.461,7.79,1.461" transform="translate(981 70)" fill="none" stroke="#707070" stroke-width="2"/>
    <text id="add" transform="translate(308 340)" fill="#707070" font-size="26" font-family="Lexend-Regular, Lexend"><tspan x="0" y="0">add</tspan></text>
    <text id="commit" transform="translate(568 340)" fill="#707070" font-size="26" font-family="Lexend-Regular, Lexend"><tspan x="0" y="0">commit</tspan></text>
    <text id="push" transform="translate(980 340)" fill="#707070" font-size="26" font-family="Lexend-Regular, Lexend"><tspan x="0" y="0">push</tspan></text>
    <line id="Line_49" data-name="Line 49" x2="89" transform="translate(285.5 357.5)" fill="none" stroke="#707070" stroke-width="2"/>
    <line id="Line_50" data-name="Line 50" x2="89" transform="translate(560.5 357.5)" fill="none" stroke="#707070" stroke-width="2"/>
    <line id="Line_51" data-name="Line 51" y1="1" x2="179" transform="translate(908.5 356.5)" fill="none" stroke="#707070" stroke-width="2"/>
    <g id="Polygon_1" data-name="Polygon 1" transform="translate(380.5 346.717) rotate(90)" fill="#fff">
      <path d="M 18.36272239685059 17.5 L 1.67894446849823 17.5 L 10.02083301544189 2.099585056304932 L 18.36272239685059 17.5 Z" stroke="none"/>
      <path d="M 10.02083301544189 4.199180603027344 L 3.357891082763672 16.5 L 16.68377494812012 16.5 L 10.02083301544189 4.199180603027344 M 10.02083301544189 0 L 20.04166221618652 18.5 L 3.814697265625e-06 18.5 L 10.02083301544189 0 Z" stroke="none" fill="#707070"/>
    </g>
    <g id="Polygon_4" data-name="Polygon 4" transform="translate(668.5 346.717) rotate(90)" fill="#fff">
      <path d="M 18.36272239685059 17.5 L 1.67894446849823 17.5 L 10.02083301544189 2.099585056304932 L 18.36272239685059 17.5 Z" stroke="none"/>
      <path d="M 10.02083301544189 4.199180603027344 L 3.357891082763672 16.5 L 16.68377494812012 16.5 L 10.02083301544189 4.199180603027344 M 10.02083301544189 0 L 20.04166221618652 18.5 L 3.814697265625e-06 18.5 L 10.02083301544189 0 Z" stroke="none" fill="#707070"/>
    </g>
    <g id="Polygon_5" data-name="Polygon 5" transform="translate(1102 346.717) rotate(90)" fill="#fff">
      <path d="M 18.36272239685059 17.5 L 1.67894446849823 17.5 L 10.02083301544189 2.099585056304932 L 18.36272239685059 17.5 Z" stroke="none"/>
      <path d="M 10.02083301544189 4.199180603027344 L 3.357891082763672 16.5 L 16.68377494812012 16.5 L 10.02083301544189 4.199180603027344 M 10.02083301544189 0 L 20.04166221618652 18.5 L 3.814697265625e-06 18.5 L 10.02083301544189 0 Z" stroke="none" fill="#707070"/>
    </g>
    <g id="Polygon_6" data-name="Polygon 6" transform="translate(233.421 513.894) rotate(-48)" fill="#fff">
      <path d="M 18.36272239685059 17.5 L 1.67894446849823 17.5 L 10.02083301544189 2.099585056304932 L 18.36272239685059 17.5 Z" stroke="none"/>
      <path d="M 10.02083301544189 4.199180603027344 L 3.357891082763672 16.5 L 16.68377494812012 16.5 L 10.02083301544189 4.199180603027344 M 10.02083301544189 0 L 20.04166221618652 18.5 L 3.814697265625e-06 18.5 L 10.02083301544189 0 Z" stroke="none" fill="#707070"/>
    </g>
    <path id="Path_241" data-name="Path 241" d="M253,517.954s145.7,109.2,267,0" transform="translate(0 0.279)" fill="none" stroke="#707070" stroke-width="2"/>
    <text id="commit-2" data-name="commit" transform="translate(390 552)" fill="#707070" font-size="26" font-family="Lexend-Regular, Lexend"><tspan x="-46.371" y="0">commit</tspan></text>
  </g>
</svg>
